<svg xmlns="http://www.w3.org/2000/svg" width="241.538" height="17.688" viewBox="0 0 241.538 17.688">
  <path id="パス_59" data-name="パス 59" d="M16.7-9.57a2.479,2.479,0,0,0-.11-.7,2.92,2.92,0,0,0-.418-.66.829.829,0,0,0-.616-.33.546.546,0,0,0-.462.286.574.574,0,0,0-.066.242.646.646,0,0,0,.242.418,3.242,3.242,0,0,1,.374.352,2.763,2.763,0,0,0,.2.462A1.546,1.546,0,0,1,15.972-9a.515.515,0,0,1-.154.374,1.073,1.073,0,0,0,.088.242c.044.154.11.242.2.242a.56.56,0,0,0,.154-.044A3.2,3.2,0,0,0,16.7-9.57ZM14.19-2.354a2.557,2.557,0,0,0,.176-.924,5.012,5.012,0,0,0-.286-1.54A2.953,2.953,0,0,0,11.9-5.7a6.988,6.988,0,0,0-2.464.572c-.748.33-1.5.682-2.244,1.034,0,.022,0-.77-.022-2.376A12.33,12.33,0,0,1,7.326-8.91a7.381,7.381,0,0,1,.33-1.848A1.974,1.974,0,0,1,8.932-11.99c-.022-.33-.286-.484-.792-.506a2.686,2.686,0,0,1-.946-.088,1.5,1.5,0,0,1-.506,1.408,4.216,4.216,0,0,1-1.364.616,5.618,5.618,0,0,0-1.364.594,8.877,8.877,0,0,0,2.794-.55c-.2,3.19-.352,5.61-.44,7.3-.308.33-.616.638-.946.968a1.643,1.643,0,0,0-.4,1.21,3.235,3.235,0,0,0,.836.55c.264.11.528.242.792.352.022-.2.066-.572.176-1.122A5.131,5.131,0,0,0,6.93-2.4a4.272,4.272,0,0,0-.044-.528,6.779,6.779,0,0,1,5.258-2.2,5.361,5.361,0,0,1,.594.022,1.671,1.671,0,0,1,.792.968c.066.4.154.792.22,1.21a1.38,1.38,0,0,1-.66.9c-.418.33-.638.55-.638.7A1.775,1.775,0,0,0,14.19-2.354ZM6.16-2.2a.484.484,0,0,1,.022.176,4.142,4.142,0,0,1-.308.7c-.11-.066-.154-.132-.154-.2s.088-.176.242-.33C6.116-1.98,6.182-2.09,6.16-2.2ZM32.45-15.466a.452.452,0,0,0-.176-.308l-.264-.264a4.272,4.272,0,0,0-.528-.044,4.23,4.23,0,0,0-3.278,1.5,3.9,3.9,0,0,0,1.562-.352,5.871,5.871,0,0,1,1.672-.528.223.223,0,0,1,.22.066.3.3,0,0,1,.066.264A.776.776,0,0,0,32.45-15.466Zm.726,1.892a3.709,3.709,0,0,0-2.178.44,2.662,2.662,0,0,0-.176.55c0,.022,0,.022.022.044a3.258,3.258,0,0,0,.374-.264.953.953,0,0,1,.55-.264.353.353,0,0,1,.242.11.408.408,0,0,1,.264.352c.022.176.022.352.044.528.088.506-.176.748-.77.77-.726.022-1.144.132-1.276.374.022.374.132.572.352.572a2.175,2.175,0,0,0,.638-.242,1.746,1.746,0,0,1,.7-.22.642.642,0,0,1,.2.044c.2.2.308.352.308.462a.43.43,0,0,1-.022.154,8.606,8.606,0,0,0-1.3.242,1.285,1.285,0,0,0-.88.748,1.452,1.452,0,0,0,.594.132,2.55,2.55,0,0,0,.616-.088A3.924,3.924,0,0,1,32.1-9.2a1.892,1.892,0,0,1,.352.022.642.642,0,0,1,.154.484v.528a2.013,2.013,0,0,1,.022.352.988.988,0,0,1-.528.924,4.895,4.895,0,0,1-1.144.308,4.644,4.644,0,0,0-1.144.33,6.962,6.962,0,0,1-.132-1.408,16.1,16.1,0,0,1,.132-1.782c.11-.858.154-1.452.176-1.782a2.051,2.051,0,0,1-.176-.9,4.841,4.841,0,0,1,.022-.506,4.475,4.475,0,0,0,.022-.484q0-.957-.594-1.188c.022.418.022.88.022,1.342,0,.7-.044,1.782-.11,3.256s-.11,2.6-.11,3.366c0,.506,0,.968.022,1.408.022.088.11.132.242.154q.165.033.2.132a1.518,1.518,0,0,1,1.21-1.232c.638-.132,1.254-.264,1.87-.374A4.483,4.483,0,0,0,33.33-8.91c0-.4-.044-1.012-.11-1.826-.088-.814-.132-1.408-.132-1.8A5.034,5.034,0,0,1,33.176-13.574Zm1.5,11.286a1.733,1.733,0,0,0-.462-.77,1.023,1.023,0,0,0-.682-.418c-.2,0-.308.154-.352.462a6.25,6.25,0,0,1,.616.616c.286.286.506.418.7.4C34.628-2.134,34.694-2.222,34.672-2.288Zm-4.4-.176a3,3,0,0,0-.924-.352q-.891-.165-.99-.2a.369.369,0,0,0-.264.352c0,.154.088.264.264.374A2.488,2.488,0,0,1,29-2.156,1.868,1.868,0,0,0,29.612-2,.719.719,0,0,0,30.272-2.464ZM26.906-5.192c-.022-.308-.22-.484-.572-.528-.374-.022-.7-.066-1.034-.088-.2.11-.286.22-.286.374,0,.374.4.55,1.166.55A.868.868,0,0,0,26.906-5.192Zm-1.056-6.16a.642.642,0,0,0,.044-.2c0-.286-.154-.418-.44-.418a.326.326,0,0,0-.154.022.883.883,0,0,1-.308-.638c0-.682,0-.968.022-.814a.455.455,0,0,1-.2-.308c0-.11.154-.286.484-.484a1.154,1.154,0,0,0,.55-.55.241.241,0,0,0-.2-.33,1.654,1.654,0,0,0-.528.044c-.572.22-1.144.44-1.694.682a7.806,7.806,0,0,1-1.782.484.523.523,0,0,0,.33.264.868.868,0,0,0,.528.022.807.807,0,0,1,.44-.176,1.282,1.282,0,0,1,.66.33.939.939,0,0,0,.682.286,1.468,1.468,0,0,1,.264.726q0,.462-.792.924a2.968,2.968,0,0,0-1.1.858,1.973,1.973,0,0,1-.044-.4,5.208,5.208,0,0,1,.484-1.826c-.242-.242-.44-.33-.594-.286a.436.436,0,0,0-.154.418c.022.33.022.484.022.484a49.3,49.3,0,0,0-3.058,7.59A6.7,6.7,0,0,0,20.7-6.974a11.622,11.622,0,0,1,1.232-2.464c.242.462.462.946.682,1.408a2.428,2.428,0,0,0,1.056,1.056,16.916,16.916,0,0,1,.176,2.42,16.916,16.916,0,0,1-.176,2.42.4.4,0,0,0,.154.11A.1.1,0,0,0,23.958-2a8.155,8.155,0,0,0,.616-3.058,5.009,5.009,0,0,0-.286-1.76A.874.874,0,0,0,24.4-7.5a1.521,1.521,0,0,1,0-.66,1.181,1.181,0,0,0,.88-.726,4.86,4.86,0,0,0,.308-1.232A4.375,4.375,0,0,1,25.85-11.352Zm-2.6,7.128A.68.68,0,0,0,23.21-4.4c-.022-.066-.11-.088-.22-.088-.22.022-.33.022-.33.022a2.992,2.992,0,0,1-.594-.726.6.6,0,0,0-.4-.154c-.418,0-.572.242-.462.7a1.641,1.641,0,0,0,1.628.726.168.168,0,0,0,.11.044C23.144-3.872,23.254-3.982,23.254-4.224Zm1.584-6.27a7.6,7.6,0,0,0-1.012,0c0-.132.11-.264.352-.4a1.327,1.327,0,0,1,.638-.2c.154,0,.22.044.22.154A.9.9,0,0,1,24.838-10.494Zm-.44.88a1.181,1.181,0,0,1,.11.418c0,.2-.154.352-.44.484a1.549,1.549,0,0,0-.682.44A2.634,2.634,0,0,0,23.1-9.328a3.411,3.411,0,0,1-.352-.946c0-.088.044-.132.11-.132a1.266,1.266,0,0,1,.528.242.326.326,0,0,0-.022.154.648.648,0,0,0,.22.462.571.571,0,0,0,.44.22A.408.408,0,0,0,24.4-9.614Zm25.5-.66c-.2-.286-.374-.55-.55-.836a.985.985,0,0,0-.7-.506c-.2.022-.308.2-.374.484A7.434,7.434,0,0,1,49.632-7.26a4.405,4.405,0,0,1-.154,1.188,1.64,1.64,0,0,0-.044,1.078.418.418,0,0,0,.308-.066.55.55,0,0,1,.176-.088,6.8,6.8,0,0,0,.506-2.574A5.948,5.948,0,0,0,49.9-10.274ZM39.424-9.108c-.22-.55-.418-.88-.616-.968a1.2,1.2,0,0,0-.286.44q.726,3.729,1.056,5.61c.506,1.562,1.166,2.442,1.98,2.6.88-.022,1.8-.7,2.794-2.024.066-.33.022-.484-.132-.484a4.916,4.916,0,0,0-1.012.9,3.219,3.219,0,0,1-1.078.792c-.374.066-.748-.132-1.166-.594A13.632,13.632,0,0,1,40.018-5.9C39.82-6.974,39.622-8.03,39.424-9.108Zm24.64,5.742L62.15-2.112a3.939,3.939,0,0,1-2.156.66,5.128,5.128,0,0,1-1.342-3.7,21.952,21.952,0,0,1,.264-2.75,21.442,21.442,0,0,0,.264-2.794,6.6,6.6,0,0,0-.088-1.166q-.363-.561-.594-.594c.022.242.022.484.022.77,0,.462-.044,1.1-.132,1.958-.11.924-.154,1.584-.176,1.958-.022.242-.044.748-.11,1.518q-.066.99-.066,1.584c0,1.738.44,2.948,1.342,3.652a1.269,1.269,0,0,0,.814.286,2.264,2.264,0,0,0,1.078-.352c.66-.352.99-.528,1.012-.55.352-.242.7-.506,1.034-.748A1.809,1.809,0,0,0,64.064-3.366Zm18.92.2c-.022-.286-.2-.462-.55-.528-.594-.132-.9-.2-.9-.2a2.805,2.805,0,0,1-.418.022c-1.21,0-1.8-.726-1.8-2.2,0-.22.022-.572.044-1.034S79.4-7.92,79.4-8.14a3.217,3.217,0,0,0-.22-1.342,2.29,2.29,0,0,1,.968-.352,2.273,2.273,0,0,0,.946-.374c-.11-.286-.286-.44-.484-.44a2.582,2.582,0,0,0-.77.286c-.33.154-.594.176-.77.022-.022-.22-.044-.44-.044-.66,0-.968.242-1.452.7-1.452a1.355,1.355,0,0,1,.792.352.313.313,0,0,0,.044-.132.955.955,0,0,0-.484-.726c-.7-.11-1.012-.638-.9-1.606a.492.492,0,0,0-.22-.066c-.22,0-.33.308-.33.946a1.275,1.275,0,0,0-.22.2q-.165.2-.264.2c-.044,0-.088-.044-.132-.11a2.046,2.046,0,0,1-.528,0c-.33-.022-.528-.044-.594-.044-.418,0-.682.154-.77.484a2.164,2.164,0,0,0,1.188.374,2.683,2.683,0,0,0,.7-.088,1.944,1.944,0,0,1,.33,1.254v1.364a8.362,8.362,0,0,1-2.156.99,8.862,8.862,0,0,0-2.09.924c0,.242.044.4.11.44a10.386,10.386,0,0,1,2.046-.814c.682-.22,1.386-.44,2.09-.638a9.945,9.945,0,0,1,.352,2.068q.165,1.98.2,2.178a1.064,1.064,0,0,1-.748.374,3.923,3.923,0,0,0-.858.176,7.391,7.391,0,0,1-.924.7,1.205,1.205,0,0,0-.572.924,1.514,1.514,0,0,0,.044.286c.088.242.374.484.88.726a5.053,5.053,0,0,0,1.628.352A1.867,1.867,0,0,0,79.794-2a1.3,1.3,0,0,0,.044-.308,2.123,2.123,0,0,0-.088-.528,2.032,2.032,0,0,1-.088-.484A.448.448,0,0,1,79.9-3.74,13.775,13.775,0,0,0,82.984-3.168Zm-4.092.286c.066.55-.066.858-.44.88-1.122-.2-1.76-.528-1.892-1.012a4.571,4.571,0,0,1,1.936-.9c.308,0,.462.176.462.55A2.272,2.272,0,0,1,78.892-2.882Zm21.1-9.13a1.666,1.666,0,0,1-1.21-.55c-.286-.352-.572-.7-.858-1.078-.418-.044-.638.154-.638.594a3.337,3.337,0,0,0,.066.528c.022.242.044.418.044.528a.821.821,0,0,1-.044.264,30.686,30.686,0,0,1-3.674,1.364c-1.276.374-2.552.726-3.806,1.1v.308a15.065,15.065,0,0,0,3.718-.836A27.578,27.578,0,0,1,97.2-10.846,5.459,5.459,0,0,1,97.35-9.46,5.284,5.284,0,0,1,97.2-8.1a.518.518,0,0,1-.176.044,1.038,1.038,0,0,1-.308-.11.521.521,0,0,0-.4-.044.961.961,0,0,0-.748.792c-.11.418-.2.836-.264,1.21a2.289,2.289,0,0,0,.726,1.782,3.1,3.1,0,0,1,.924,2.4c0,.308-.022.77-.088,1.408-.066.66-.11,1.122-.11,1.452.088.044.132.132.132.286v.286q0,.2.132.2a.68.68,0,0,0,.176-.044c.242-1.782.44-3.872.594-6.314.154-2.134.286-4.29.418-6.424a6.4,6.4,0,0,1,1.034-.308A.972.972,0,0,0,99.99-12.012Zm-1.606-.11a.239.239,0,0,1-.022.11.121.121,0,0,1-.132.088.166.166,0,0,1-.154-.088.223.223,0,0,1,.242-.176A.058.058,0,0,1,98.384-12.122Zm-1.474,7.7a3,3,0,0,1-.9-1.98,2.082,2.082,0,0,1,.176-.814c0-.2.044-.286.154-.286.088,0,.286.154.572.462a4.956,4.956,0,0,1,.154,1.364A3.71,3.71,0,0,1,96.91-4.422Zm14.74-9.922c-.022-.11-.154-.176-.4-.176a35.167,35.167,0,0,0-.7,6.028,17.177,17.177,0,0,0,.11,1.892.454.454,0,0,0,.154.726c.066.022.154,0,.264-.11.088-.11.154-.154.176-.154A56.049,56.049,0,0,1,111.65-14.344Zm0,11.836a2.218,2.218,0,0,1-.308-.682c-.11-.352-.242-.528-.374-.528-.11,0-.264.11-.44.33a1.1,1.1,0,0,0-.044.264.5.5,0,0,0,.2.4,3.381,3.381,0,0,0,.418.374h.33A.2.2,0,0,0,111.65-2.508Zm23.232-11.726a10.511,10.511,0,0,0-2.552,7,10.722,10.722,0,0,0,.22,2.222c.154.66.286,1.32.44,1.98a1.608,1.608,0,0,0,1.3,1.254A3.141,3.141,0,0,0,134.6-2.4a2.5,2.5,0,0,0-.594-.44,6.149,6.149,0,0,1-.836-2.9c-.066-1.034-.11-2.046-.176-3.08.066-.2.352-1.1.858-2.728A15.3,15.3,0,0,1,134.882-14.234ZM149.754-9.5a3.986,3.986,0,0,0-1.408.176c-.506.154-.99.286-1.5.418a8.23,8.23,0,0,1-.726-2.332,1.975,1.975,0,0,1,1.452-.594,2.112,2.112,0,0,1,.726.132.97.97,0,0,1,.264-.374.7.7,0,0,0,.242-.418.782.782,0,0,0-.044-.22,3.79,3.79,0,0,0-1.364.286c-.814.286-1.254.44-1.276.44a1.172,1.172,0,0,1-.528-.858,7.616,7.616,0,0,0-.2-1.034c-.176-.44-.4-.66-.682-.66a.355.355,0,0,0-.2.066,1.066,1.066,0,0,0-.066.4,3.445,3.445,0,0,0,.264,1.144,7.015,7.015,0,0,1,.4,1.122,2.57,2.57,0,0,1-1.012.44,5.681,5.681,0,0,0-1.034.4.741.741,0,0,0,.616.308,2.837,2.837,0,0,0,.792-.154,2.865,2.865,0,0,1,.77-.154,2.748,2.748,0,0,1,.374,1.056,2.406,2.406,0,0,0,.352,1.012,12.948,12.948,0,0,1-2.2,1.012,5.622,5.622,0,0,0-2,1.166.344.344,0,0,0,.374.154,1.7,1.7,0,0,1,.462.022,8.243,8.243,0,0,1,1.65-.836c.176-.066.748-.286,1.716-.616a33.832,33.832,0,0,1,2.046,5.522,1.053,1.053,0,0,1,.154.638v.242a1.08,1.08,0,0,0-.022.242.9.9,0,0,0,.33.792q.1.033.264-.132c.088-.088.154-.132.176-.154a18.169,18.169,0,0,0-.792-3.74c-.374-1.188-.726-2.376-1.1-3.586a2.544,2.544,0,0,1,1.584-.506C149.314-8.756,149.688-9.02,149.754-9.5ZM167.332-12.3a2.033,2.033,0,0,1,.132-.77,2.865,2.865,0,0,0,.154-.77.747.747,0,0,0-.44-.7.736.736,0,0,0-.44.726,6.518,6.518,0,0,1-.022.9,53.077,53.077,0,0,1-5.236,11.4A31.874,31.874,0,0,0,167.332-12.3Zm-5.852.836a1.105,1.105,0,0,1-.836-.33,8.03,8.03,0,0,1-.792-.682,2.826,2.826,0,0,1-.638-.352,1.489,1.489,0,0,0-.7-.286.5.5,0,0,0-.4.2,2.377,2.377,0,0,0,1.188,1.342,17.959,17.959,0,0,0,1.716.726l.308-.308A.384.384,0,0,0,161.48-11.462Zm16.786.572c-.022-.858-.616-1.584-1.738-2.134a2.952,2.952,0,0,1-.814-.55,1.1,1.1,0,0,0-.924-.308.946.946,0,0,1-.154.154.265.265,0,0,0-.088.264,2.944,2.944,0,0,0,1.144,1.012,8.24,8.24,0,0,1,1.3.836,1.755,1.755,0,0,1,.55,1.43c0,.11.132.154.4.154a.408.408,0,0,0,.286-.374C178.244-10.692,178.266-10.868,178.266-10.89Zm10.472-.022a.276.276,0,0,0-.022-.2.234.234,0,0,0-.176-.022L182.4-6.974a67.59,67.59,0,0,1-6.27,3.806,4.508,4.508,0,0,1-.9.33.657.657,0,0,0-.594.616.457.457,0,0,0,.22.132.444.444,0,0,0,.242,0,2.092,2.092,0,0,1,.308-.022,23.079,23.079,0,0,0,4.8-2.662c1.452-.968,2.9-1.936,4.356-2.882A33.491,33.491,0,0,0,188.738-10.912Zm8.932,3.5.286-.286a7.036,7.036,0,0,1-.638-.814c-.286-.374-.528-.55-.726-.55a.689.689,0,0,0-.528.352,1.139,1.139,0,0,0,.616.858C197.01-7.7,197.34-7.568,197.67-7.414Zm18.106,1.1a5.9,5.9,0,0,0-.814-2.156,12.569,12.569,0,0,1-1.078-2.09,1.665,1.665,0,0,1,.572-.4,3.526,3.526,0,0,0-2.354-1.782.691.691,0,0,0-.154.462,2.179,2.179,0,0,0,.286.88,3.072,3.072,0,0,1,.308.836,6.02,6.02,0,0,1-1.54.836,9.967,9.967,0,0,0-1.518.66,2.17,2.17,0,0,0,.528.066,3.993,3.993,0,0,0,1.452-.33c.462-.2.9-.418,1.364-.616.528.77,1.056,1.518,1.584,2.288a4.529,4.529,0,0,1,.638,2.684c.066.132,0,.33-.176.616a1.75,1.75,0,0,0-.264.506c0,.11.154.176.44.154a3.161,3.161,0,0,0,.77-2.112A4.3,4.3,0,0,0,215.776-6.314ZM213,.154c.066-.33-.132-.66-.638-.946a2.6,2.6,0,0,1-1.1-.99,3.91,3.91,0,0,1-.7-1.078c-.286-.506-.528-.77-.726-.77-.154,0-.33.132-.484.4C210.3-1.232,211.53-.088,213,.154ZM232.5-11.11a.889.889,0,0,1-.594-.858c0-.088.022-.22.044-.4a2.985,2.985,0,0,0,.022-.4,1.1,1.1,0,0,0-.044-.264.931.931,0,0,1-.528.242c-.2,0-.418-.176-.682-.506a1.472,1.472,0,0,0-.682-.572,1.135,1.135,0,0,0-.242-.044c-.374,0-.572.176-.572.528a1.136,1.136,0,0,0,.044.242,1.161,1.161,0,0,1,.264.638c0,.264-.22.506-.682.726a1.8,1.8,0,0,0-.88.66,1.486,1.486,0,0,0,.308.044,2.008,2.008,0,0,0,.638-.176,1.546,1.546,0,0,1,.682-.154.951.951,0,0,1,.264.616q0,.5-.792,1.122a6.558,6.558,0,0,0-1.1,1.034.618.618,0,0,0,.506.33,1.884,1.884,0,0,0,.9-.462,2.381,2.381,0,0,1,.946-.462,20.424,20.424,0,0,1,1.3,2.068,1.757,1.757,0,0,1,.2.792,2.58,2.58,0,0,1-.4,1.254l-.66,1.188a.782.782,0,0,0,.22.044.646.646,0,0,0,.418-.242c.22-.242.352-.4.374-.418a2.4,2.4,0,0,0,.572-1.562,5.172,5.172,0,0,0-.418-1.8q-.528-1.419-.594-1.716a3.109,3.109,0,0,1,.748-.55.82.82,0,0,0,.462-.66A1.514,1.514,0,0,0,232.5-11.11ZM231.77,1.056a14.68,14.68,0,0,0-2.134-2.244,29.556,29.556,0,0,1-2.266-2.178.665.665,0,0,0-.506-.154c-.242,0-.374.088-.374.286a.429.429,0,0,0,.022.154A10.686,10.686,0,0,0,228.69-.858a27.653,27.653,0,0,1,2.354,2.024s.132,0,.4.022A.386.386,0,0,0,231.77,1.056Zm-1.452-13.75c0,.066-.044,0-.154-.154Zm.44,1.166q-.1,0,0-.33Zm.858.858a1.073,1.073,0,0,1-.572.286.642.642,0,0,1-.044-.2.515.515,0,0,1,.154-.374.416.416,0,0,1,.308-.154c.11,0,.176.088.176.242A.609.609,0,0,1,231.616-10.67ZM245.5-9.108a12.4,12.4,0,0,0-2.64-5.236.545.545,0,0,0-.462-.242c-.308,0-.44.176-.418.506a10.959,10.959,0,0,1,1.078,1.342c.33.462.638.946.968,1.408a8.918,8.918,0,0,1,.792,3.85,8.879,8.879,0,0,1-1.232,4.8,1.626,1.626,0,0,1-.132.44,1.263,1.263,0,0,0-.154.44c0,.11.066.176.22.176a1.437,1.437,0,0,0,.242-.044,8.657,8.657,0,0,0,.792-1.628l.66-1.716a9.617,9.617,0,0,0,.154-2.046A8.569,8.569,0,0,1,245.5-9.108Z" transform="translate(-3.96 16.082)" fill="#333"/>
</svg>
