<svg xmlns="http://www.w3.org/2000/svg" width="282.218" height="58.801" viewBox="0 0 282.218 58.801">
  <g id="cover_text_01" transform="translate(-22.928 -381.392)">
    <path id="パス_15" data-name="パス 15" d="M27.292,446.877l275.2-29.565H290.117L37.606,449.26Z" transform="translate(0 -11)" fill="#ffeb00" opacity="0.7"/>
    <g id="結婚しました_" data-name="結婚しました。" transform="matrix(0.996, -0.087, 0.087, 0.996, 22.929, 397.986)">
      <path id="パス_1" data-name="パス 1" d="M3.408,33.208a1.216,1.216,0,0,1-1-.412,6.576,6.576,0,0,1-2.351-4.29c-.176-1.058.059-1.587.765-1.587a1.134,1.134,0,0,1,.412.059c1.058,2.761,2.234,4.583,3.585,5.405a1.52,1.52,0,0,1-1.41.824M8.286,15.223c-.3,3.292-.412,6.758-.412,10.344s.117,6.937.412,9.934a2.081,2.081,0,0,1-.591.117.842.842,0,0,1-.762-.588c-.236-.35-.472-.7-.646-1a41.194,41.194,0,0,0-.176-6.289c-.3-3.173-.412-5.405-.412-6.642,0-4.76,1.234-8.288,3.762-10.52a1.711,1.711,0,0,0-1.117-.469,4.048,4.048,0,0,0-1.47.469,3.357,3.357,0,0,1-1.351.529,1.238,1.238,0,0,1-.705-.176A49.47,49.47,0,0,1,7.639,5.289Q10.283.618,10.636,0c.355.353.472.586.412.765A8.576,8.576,0,0,1,9.754,4.526,5.954,5.954,0,0,0,8.7,8.228a3.1,3.1,0,0,1,3.468,0,14.3,14.3,0,0,1-3.878,6.994M15.1,26.979a1.868,1.868,0,0,1-1.351-.412,3.9,3.9,0,0,0-1.117-1.117c-.586-.412-.881-.705-.881-1s.3-.648.822-1c1.117-.176,2.411.881,3.881,3.116a1.874,1.874,0,0,1-1.353.412M34.734,13.343a.99.99,0,0,1-.588-.178.322.322,0,0,1-.236-.353c0-.293.236-.527.707-.762s.705-.412.705-.472c0-.176-.3-.41-.822-.646a14.308,14.308,0,0,0-1.589-.117,23.28,23.28,0,0,0-6.818,1.41,21.877,21.877,0,0,1-6.523,1.47c.176-1.06,1.175-1.941,3.114-2.587s3-1.587,3.175-2.88a3.265,3.265,0,0,1,.176-1.41,4.922,4.922,0,0,0,.234-1.177,1.375,1.375,0,0,0-.41-1,4.123,4.123,0,0,1-2.351.412.714.714,0,0,1-.353-.588c0-.529.527-1,1.527-1.353a7.754,7.754,0,0,0,1.939-1.175A3.782,3.782,0,0,1,28.5,1.117a2.7,2.7,0,0,1,1.7.822,3.789,3.789,0,0,0-2.292,3.526c-.059,1.41-.059,2.823-.117,4.233a23.7,23.7,0,0,0,2.644-.236A24.222,24.222,0,0,1,33.5,9.227c2.115,0,3.585.588,4.467,1.706-.881,1.587-2,2.411-3.233,2.411M28.212,32.8c-.412-.412-1.177-.412-2.294-.117q-1.322.35-1.587-1.06a10.8,10.8,0,0,0,.412-3.23,34.24,34.24,0,0,0-.236-3.585,32.478,32.478,0,0,1-.236-3.468,9.5,9.5,0,0,1,.412-3c.881-.3,1.527.236,1.939,1.527a13.166,13.166,0,0,1,4.409-1.117,4.6,4.6,0,0,1,1.82.353,12.913,12.913,0,0,1-.234,3.762A27.9,27.9,0,0,0,32.09,26.8,3.413,3.413,0,0,0,34.5,30.445,12.221,12.221,0,0,0,28.212,32.8m.646-11.461a2.251,2.251,0,0,1-1.236.705,2.129,2.129,0,0,1-.586-.117,11.234,11.234,0,0,1,.117,1.41,29.323,29.323,0,0,1-.293,3.233,20.966,20.966,0,0,0-.353,3.233,11.27,11.27,0,0,0,.117,1.41c2.058-.059,3.233-.705,3.526-2a15.635,15.635,0,0,0-.41-4.29c-.293-1.939-.176-3.292.469-4.174a1.7,1.7,0,0,0-1.351.588" transform="translate(-0.001 0)" fill="#fff"/>
      <path id="パス_2" data-name="パス 2" d="M18.984,12.873c-.881.234-1.706.469-2.585.762a12.624,12.624,0,0,1-1.706,5.7c-1.234,2.528-1.822,4.35-1.822,5.467,0,1.706.941,3.173,2.763,4.467a6.127,6.127,0,0,1,.822,2.821A3.423,3.423,0,0,1,16.1,33.62a3.343,3.343,0,0,0-.469.293,1.286,1.286,0,0,1-.705.353.551.551,0,0,1-.472-.353,5.067,5.067,0,0,0,.119-.941c0-1.644-.824-3.29-2.47-5-1.587-1.41-3.114-2.821-4.643-4.171a16.611,16.611,0,0,0,1-3.821c.3-2.115.531-3.349.591-3.645-1.47.469-2.882.941-4.352,1.41A4.1,4.1,0,0,0,1.939,21.1a.758.758,0,0,1-.353.057,1.445,1.445,0,0,1-.881-.412A6.436,6.436,0,0,0,0,20.337a2.927,2.927,0,0,1,1.822-2.7c1.82-1,2.821-1.529,2.937-1.646q.529-.264,2.823-1.058a5.781,5.781,0,0,0,2.585-1.646L10.7,6.937A33.08,33.08,0,0,1,11.756.765a.955.955,0,0,1,.822.941V3.056a1.542,1.542,0,0,0,.353.881,18.543,18.543,0,0,0-.412,4.526v4.409a2.144,2.144,0,0,0,.588.117c.588,0,1.117-.412,1.644-1.294.472-.881.824-1.294,1.117-1.294.353,0,.824.412,1.41,1.294a1.293,1.293,0,0,0,.472.059,4.488,4.488,0,0,0,1.234-.293,3.939,3.939,0,0,1,1.234-.236,1.667,1.667,0,0,1,.529.057,2.671,2.671,0,0,1-1.763,1.589m-7.228,3.114a10.1,10.1,0,0,1-.824,2.763,8.415,8.415,0,0,0-.765,2.821,2.536,2.536,0,0,0,.822,1.88,14.918,14.918,0,0,0,1.589-4.114c.646-2.644,1-4.171,1.117-4.524-1.236,0-1.882.412-1.939,1.175m30.5-2.232a6.285,6.285,0,0,1-3.173-1.529,8.3,8.3,0,0,0-3.116-1.7c-4.055,3.466-7.816,5.405-11.344,5.818a30.518,30.518,0,0,1-1-5.112A4.635,4.635,0,0,1,25.8,7.054c.529-1.353,1-2.644,1.527-4A5.052,5.052,0,0,1,29.68,0a1.243,1.243,0,0,1,.472.353,35.51,35.51,0,0,1-4.762,10.17A5.068,5.068,0,0,0,26.567,14.4a27.705,27.705,0,0,0,4.171-1.939q2.03-1.147,4.057-2.292a1.919,1.919,0,0,0-1.177-1.353,3.517,3.517,0,0,1-1.527-1,4.529,4.529,0,0,0-2.115,1.468c-.881.884-1.589,1.353-2.058,1.353a1.448,1.448,0,0,1-.941-.469c.059-.588.588-1.177,1.589-1.825.939-.646,1.41-1.115,1.41-1.468a1.407,1.407,0,0,0-.588-1,2.471,2.471,0,0,1,2.175-.939A10.413,10.413,0,0,1,32.739,5a9.456,9.456,0,0,0,1.175.059,3.633,3.633,0,0,0,2.821-1.117c1.117,0,1.706.236,1.706.646a2.949,2.949,0,0,1-.119.531,16.1,16.1,0,0,0-3.114,1.527,24.043,24.043,0,0,0,4.055,3.292,10.918,10.918,0,0,1,3.7,3.7,2.9,2.9,0,0,1-.705.119M32.8,34.619a8.933,8.933,0,0,1-3,1,3.269,3.269,0,0,1-2.056-.822,63.464,63.464,0,0,1-.414-7.64,63.791,63.791,0,0,1,.414-7.7,7.129,7.129,0,0,0,2.525-1.646,3.967,3.967,0,0,1,2.411-1.175,3.285,3.285,0,0,1,1.763.586c0-.059,0,1.587-.059,4.938a21.257,21.257,0,0,0,.412,4.76,13,13,0,0,1,.472,3.585,7.4,7.4,0,0,0,.7,3.409,6.025,6.025,0,0,0-3.173.705m.117-3.114a8.074,8.074,0,0,0-.234-1.646,8.077,8.077,0,0,1-.236-1.765,3.061,3.061,0,0,1,.06-.762c.059-.765-.119-1.117-.472-1.117a2.361,2.361,0,0,0-.762.236,2.977,2.977,0,0,1-1,.293,1.123,1.123,0,0,1-.588-.176,2.045,2.045,0,0,1,.176.941,20.242,20.242,0,0,1-.293,2.351,13.863,13.863,0,0,0-.353,2.351c0,.939.353,1.41,1,1.41a5.186,5.186,0,0,0,2.292-.881,1.663,1.663,0,0,0,.41-1.234M30.681,20.278a1.484,1.484,0,0,1-1-.353v2.292q0,1.5.884,1.589c.762-.176,1.175-.881,1.351-2.058.057-1,.117-2.058.176-3.056v.472c-.059.762-.529,1.115-1.41,1.115" transform="translate(53.903 1.294)" fill="#fff"/>
      <path id="パス_3" data-name="パス 3" d="M14.105,26.919c-.881.646-1.822,1.353-2.761,2-.059.059-.941.529-2.7,1.47a6.06,6.06,0,0,1-2.882.939,3.386,3.386,0,0,1-2.173-.762C1.175,28.682,0,25.449,0,20.809q0-1.59.176-4.233c.176-2.056.234-3.409.293-4.057.06-1,.176-2.761.469-5.229.236-2.294.355-4,.355-5.231,0-.765,0-1.41-.059-2.058q.615.089,1.587,1.587A17.655,17.655,0,0,1,3.056,4.7a57.472,57.472,0,0,1-.705,7.466,58.44,58.44,0,0,0-.707,7.347A13.7,13.7,0,0,0,5.231,29.39a10.536,10.536,0,0,0,5.758-1.765L16.1,24.275a4.828,4.828,0,0,1-2,2.644" transform="translate(116.698 8.111)" fill="#fff"/>
      <path id="パス_4" data-name="パス 4" d="M15.518,29.094a1.192,1.192,0,0,0-.646,1.117,5.4,5.4,0,0,0,.234,1.291,5.593,5.593,0,0,1,.236,1.41,3.439,3.439,0,0,1-.117.824,4.991,4.991,0,0,1-3.881,1.7,13.479,13.479,0,0,1-4.35-.941c-1.351-.646-2.115-1.291-2.351-1.937a4.2,4.2,0,0,1-.117-.767,3.222,3.222,0,0,1,1.529-2.468,19.768,19.768,0,0,0,2.468-1.88,10.633,10.633,0,0,1,2.292-.472,2.84,2.84,0,0,0,2-1q-.086-.529-.529-5.818a26.532,26.532,0,0,0-.941-5.527c-1.88.531-3.762,1.117-5.584,1.706A27.667,27.667,0,0,0,.3,18.515C.119,18.4,0,17.986,0,17.338A23.764,23.764,0,0,1,5.584,14.87a22.351,22.351,0,0,0,5.76-2.644V8.581a5.186,5.186,0,0,0-.881-3.349,7.16,7.16,0,0,1-1.88.234,5.776,5.776,0,0,1-3.175-1c.236-.881.941-1.294,2.058-1.294.176,0,.705.059,1.587.117a5.4,5.4,0,0,0,1.41,0c.119.176.236.3.353.3.176,0,.412-.176.705-.529a3.47,3.47,0,0,1,.588-.529C12.109.822,12.4,0,12.99,0a1.329,1.329,0,0,1,.588.176c-.3,2.587.529,4,2.409,4.29a2.556,2.556,0,0,1,1.294,1.939.845.845,0,0,1-.117.353,3.627,3.627,0,0,0-2.115-.941c-1.234,0-1.882,1.294-1.882,3.881,0,.588.059,1.175.117,1.763.472.412,1.177.353,2.058-.057a6.853,6.853,0,0,1,2.056-.765c.531,0,1,.41,1.294,1.175a6.066,6.066,0,0,1-2.528,1,6.086,6.086,0,0,0-2.585.939,8.587,8.587,0,0,1,.588,3.585c0,.588-.06,1.529-.119,2.763s-.117,2.175-.117,2.763c0,3.936,1.587,5.877,4.819,5.877a7.414,7.414,0,0,0,1.117-.06s.822.176,2.409.529c.941.176,1.41.648,1.47,1.41a36.773,36.773,0,0,1-8.228-1.527m-2.528,1c0-1-.412-1.47-1.234-1.47-1,0-2.761.824-5.172,2.411.353,1.294,2.056,2.175,5.055,2.7,1-.059,1.351-.881,1.175-2.351a6.123,6.123,0,0,0,.176-1.294" transform="translate(150.474 2.292)" fill="#fff"/>
      <path id="パス_5" data-name="パス 5" d="M14.105,26.919c-.881.646-1.822,1.353-2.761,2-.06.059-.941.529-2.7,1.47a6.06,6.06,0,0,1-2.882.939,3.386,3.386,0,0,1-2.173-.762C1.175,28.682,0,25.449,0,20.809q0-1.59.176-4.233c.176-2.056.234-3.409.293-4.057.06-1,.176-2.761.469-5.229.236-2.294.355-4,.355-5.231,0-.765,0-1.41-.06-2.058q.615.089,1.587,1.587A17.657,17.657,0,0,1,3.056,4.7a57.469,57.469,0,0,1-.705,7.466,58.441,58.441,0,0,0-.707,7.347A13.7,13.7,0,0,0,5.231,29.39a10.536,10.536,0,0,0,5.758-1.765L16.1,24.275a4.828,4.828,0,0,1-2,2.644" transform="translate(195.421 8.111)" fill="#fff"/>
      <path id="パス_6" data-name="パス 6" d="M8.817,4.231Q5.64,6.26,5.641,8.817a5.714,5.714,0,0,0,.3,1.644C5.584,12.635,5.289,16.1,5,20.983A95.078,95.078,0,0,1,4,31.21,12.6,12.6,0,0,1,3.056,25.8c.057-3.468.117-5.289.057-5.584.176-2.175.355-4.407.531-6.582A33.5,33.5,0,0,1,4.7,7.347a1.216,1.216,0,0,0-1-.412,5.682,5.682,0,0,0-1.41.236,6.718,6.718,0,0,1-1.527.293A2.933,2.933,0,0,1,0,7.347q.44-.793,3.173-1.939C4.76,4.76,5.524,3.878,5.524,2.88a4.921,4.921,0,0,0-.469-1.822A1.283,1.283,0,0,1,6.465.176a1.372,1.372,0,0,1,1.41.881,2.33,2.33,0,0,1-.412.705,1.125,1.125,0,0,0-.41.705A.709.709,0,0,0,7.406,3c.881.176,1.7-.236,2.468-1.353S11.285,0,11.814,0a2.8,2.8,0,0,1,1.47.646c-.412.705-1.941,1.882-4.467,3.585m17.1,25.216c-.824.176-1.648.41-2.53.586a6.21,6.21,0,0,1-5.818-3.585c.353-1.058.705-1.587,1.117-1.587.293,0,.762.472,1.468,1.353.648.941,1.234,1.41,1.706,1.41a7.538,7.538,0,0,0,2.878.469,22.914,22.914,0,0,1,3,0,2.3,2.3,0,0,1-1.82,1.353m-.412-16.692a2.893,2.893,0,0,1-1.646,1.587.707.707,0,0,1-.472-.705c.06-.529.06-.824,0-.881.529-.176.824-.472.824-.765,0-.648-.529-1.175-1.589-1.529-.057,0-.7-.057-2.056-.234a2.633,2.633,0,0,1-1.822-.941,1.529,1.529,0,0,1,1.587-1.175,8.4,8.4,0,0,1,2.115.41,5.815,5.815,0,0,0,2.118.353,2.74,2.74,0,0,1,1.644,1.587q-.7,2.2-.7,2.294" transform="translate(229.177 5.82)" fill="#fff"/>
      <path id="パス_7" data-name="パス 7" d="M9.46,3.713a8.139,8.139,0,0,1-.705,2.761,10.045,10.045,0,0,0-.879,2.587,4.355,4.355,0,0,0-2.118-.469,12.285,12.285,0,0,0-1.294.057,11.8,11.8,0,0,1-1.291.059A2.928,2.928,0,0,1,0,6.65a32.7,32.7,0,0,1,1.937-4A6.651,6.651,0,0,1,5.17.008a2.885,2.885,0,0,1,2,.705A18.355,18.355,0,0,0,9.05,2.007a3.488,3.488,0,0,1,.41,1.706M4,2.36A4.032,4.032,0,0,0,2.232,5.18a4.151,4.151,0,0,0,.117.765c-.057.469.176.705.705.765A8.573,8.573,0,0,0,4.288,6.65a2.242,2.242,0,0,0,1,.236c1.294,0,1.939-.822,1.939-2.528a4.06,4.06,0,0,0-.117-.822A2.956,2.956,0,0,0,4,2.36" transform="translate(270.539 28.614)" fill="#fff"/>
    </g>
  </g>
</svg>
