<svg xmlns="http://www.w3.org/2000/svg" width="300.09" height="60.39" viewBox="0 0 300.09 60.39">
  <g id="cover_text_01" transform="translate(-34.75 -458.421)">
    <path id="パス_16" data-name="パス 16" d="M27.292,446.877l294.979-30.688-32.154,1.123L37.606,449.26Z" transform="matrix(0.999, 0.035, -0.035, 0.999, 25.222, 56.509)" fill="#ffeb00" opacity="0.7"/>
    <g id="チョン家です_" data-name="チョン家です。" transform="matrix(0.998, -0.07, 0.07, 0.998, 45.797, 469.896)">
      <path id="パス_8" data-name="パス 8" d="M21.865,18.322a21.783,21.783,0,0,0-4.416.871c-2.073,5.563-3.437,9.053-4.036,10.47a35.137,35.137,0,0,1-6.107,9.49H6.215A43.011,43.011,0,0,0,14.939,19.9a2.949,2.949,0,0,1-.38-.274c-2.782.707-7.143,1.58-13.031,2.509a1.812,1.812,0,0,0-.82-.438C.217,21.593,0,21.43,0,21.158a1.756,1.756,0,0,1,.106-.438.963.963,0,0,1,.873-.763,3.489,3.489,0,0,1,.818.164,2.248,2.248,0,0,0,.82.217c1.364-.272,3.435-.652,6.162-1.145s4.8-.818,6.16-1.09a2.844,2.844,0,0,0,1.092-2.617v-.873a5.962,5.962,0,0,1-.055-.873q0-1.963,1.474-2.126a6.685,6.685,0,0,1,.38,2.891,6.735,6.735,0,0,0,.327,2.889c.6-.053,1.8-.164,3.6-.435a27.054,27.054,0,0,1,3.547-.327,9.2,9.2,0,0,1,1.253.108v1.092c-.219.053-1.8.217-4.69.491M15.213,6.489a36.067,36.067,0,0,1-2.4,4.471A6.262,6.262,0,0,1,8.724,13.8c2.889-3,5.017-7.47,6.489-13.414A.792.792,0,0,1,15.922,0a1.091,1.091,0,0,1,1.2,1.09,19.614,19.614,0,0,1-1.91,5.4" transform="translate(0 1.473)" fill="#fff"/>
      <path id="パス_9" data-name="パス 9" d="M9.871,14.561c-.272,0-.707,0-1.308-.055H7.254a10.394,10.394,0,0,0-2.944.327,8.72,8.72,0,0,0-1.419.435,4.787,4.787,0,0,1-1.636.382A2.005,2.005,0,0,1,0,15.268c2.4-1.58,6.653-2.345,12.706-2.235a2.438,2.438,0,0,0,.382.382,1.778,1.778,0,0,1,.327.435,6.766,6.766,0,0,1-3.545.709m1.746-2.509c-.6,0-.928-.11-1.092-.382a30.156,30.156,0,0,0,1.907-8.507c0-.546-.053-1.09-.106-1.636-1.8.327-3.547.654-5.291.981A24.589,24.589,0,0,1,1.8,2.946V2.237A48.055,48.055,0,0,1,14.123,0a.6.6,0,0,0-.053.272c0,.11.108.219.272.382a.469.469,0,0,1,.164.491c.053,2.727-.873,6.381-2.889,10.907m-1.8-4.418A3.545,3.545,0,0,0,8.127,7.2,8.594,8.594,0,0,0,6,7.634a8.673,8.673,0,0,1-2.071.438,2.7,2.7,0,0,1-1.419-.438A10.061,10.061,0,0,1,8.18,5.455a5.128,5.128,0,0,1,2.727.763A5.7,5.7,0,0,1,9.815,7.634" transform="translate(42.226 22.03)" fill="#fff"/>
      <path id="パス_10" data-name="パス 10" d="M9.125,8.662a1.014,1.014,0,0,1-.707.928c-.654,0-.981-.11-.981-.382A4.351,4.351,0,0,0,6.073,5.663,20.3,20.3,0,0,0,2.855,3.591,7.3,7.3,0,0,1,.019,1.083.658.658,0,0,1,.238.429,2.327,2.327,0,0,0,.62.046,2.727,2.727,0,0,1,2.91.809,7.246,7.246,0,0,0,4.928,2.173c2.78,1.364,4.254,3.163,4.308,5.291,0,.053-.053.489-.11,1.2M24.83,15.478c-3.6,2.345-7.2,4.745-10.8,7.143a57.1,57.1,0,0,1-11.888,6.6,5.138,5.138,0,0,0-.763.055,1.123,1.123,0,0,1-.6,0,1.139,1.139,0,0,1-.546-.329A1.63,1.63,0,0,1,1.71,27.419,11.089,11.089,0,0,0,3.946,26.6a167.758,167.758,0,0,0,15.542-9.433Q27.094,12.014,34.7,6.863a.571.571,0,0,1,.435.055.675.675,0,0,1,.055.491A83.17,83.17,0,0,1,24.83,15.478" transform="translate(77.292 6.333)" fill="#fff"/>
      <path id="パス_11" data-name="パス 11" d="M17.832,26.013a8.763,8.763,0,0,1-2.237,6.215c-.707,1.417-2.29,2.78-4.69,4.036l-.707-.709c3.709-2.891,5.726-6,6.107-9.433a4.25,4.25,0,0,0,.11-.765c0-.707-.274-1.037-.82-1.037a1.944,1.944,0,0,0-1.253.548,2.518,2.518,0,0,0-.926,1.253c-2.018,2.67-3.054,4.034-3.218,4.2a7.562,7.562,0,0,1-3.6,2.617H6.162l5.072-6.054a21.963,21.963,0,0,0,3.981-6.27,4.9,4.9,0,0,0-3.872-1.746,4.686,4.686,0,0,0-1.963.382A30.9,30.9,0,0,1,0,27.539v-.709A96.35,96.35,0,0,0,11.614,13.8a4.16,4.16,0,0,0-.816-.11,5.651,5.651,0,0,0-2.073.656,5.611,5.611,0,0,1-2.237.707,2.808,2.808,0,0,1-.707-.108A10.732,10.732,0,0,1,13.2,11.835,8.376,8.376,0,0,1,14.888,12a12.452,12.452,0,0,1-1.636,2.617c-.654.818-1.31,1.58-1.963,2.4,2.672.272,4.58,1.2,5.724,2.889a33.177,33.177,0,0,1,.818,6.109m7.2-19.306a2.43,2.43,0,0,1-.6,1.092,1.962,1.962,0,0,0-.493,1.308,1.777,1.777,0,0,0-.654.654,1.047,1.047,0,0,1-.816.546.467.467,0,0,1-.327-.164c-.11-.055-.166-.219-.166-.438a3.462,3.462,0,0,1,.219-1.034,4.6,4.6,0,0,0,.164-.928c0-.6-.435-.873-1.364-.818-.108.272-.491.382-1.09.382a.971.971,0,0,0-.274-.382C12.105,8.235,6.653,9.817,3.273,11.617a6.64,6.64,0,0,1-.11-1.092,8.629,8.629,0,0,1,.6-2.672A21.611,21.611,0,0,0,4.69,5.127q.9,0,1.145.327A1.494,1.494,0,0,1,6,6.164a2.309,2.309,0,0,1-.491,1.2,2.369,2.369,0,0,0-.489,1.147,1.419,1.419,0,0,0,.489.926c4.526-2.29,10.8-3.49,18.813-3.653.491.272.709.6.709.926M10.852,26.013c-1.417,1.8-2.836,2.834-4.252,3.052,1.037-1.419,2.126-2.836,3.163-4.252a26.828,26.828,0,0,0,2.562-4.471,1.278,1.278,0,0,1,.438-.11c.707,0,1.145.382,1.364,1.2q-1.638,2.291-3.273,4.582m.274-22.468A2.592,2.592,0,0,1,9.815,5.4c-.491.055-.763-.053-.763-.327a3.207,3.207,0,0,1,.272-.763,2.254,2.254,0,0,0,.219-.928.89.89,0,0,0-.164-.491,5.737,5.737,0,0,1-.108-1.145C9.272.6,9.488,0,9.979,0c.327,0,.763.382,1.31,1.092a12.036,12.036,0,0,1-.164,2.453m25.627,29.5c0,.219-.162.382-.489.491a2.516,2.516,0,0,0-.709.219c-6.927-1.527-12.107-4.582-15.65-9.106V23.558c.274-.219,1.636-1.582,4.089-4.036a12,12,0,0,1,4.363-3.216v.709a24.1,24.1,0,0,1-3.108,3.435,13.554,13.554,0,0,0-2.727,3.49,14.234,14.234,0,0,0,6.325,5.78,81.485,81.485,0,0,0,7.8,2.944,1.386,1.386,0,0,1,.108.382" transform="translate(127.738 -0.001)" fill="#fff"/>
      <path id="パス_12" data-name="パス 12" d="M19.14,31.789a4.277,4.277,0,0,1-1.2-.217,8.351,8.351,0,0,0-1.308-.164,2.9,2.9,0,0,0-.6.108c-3.925-.6-6.381-1.963-7.415-4.144a13.509,13.509,0,0,1-.437-3.326q0-3.517,2.617-9A46.493,46.493,0,0,0,14.342,6.27a.923.923,0,0,1-.166-.327,37.79,37.79,0,0,0-6.323,2.29,23.8,23.8,0,0,1-6.436,1.91A3.413,3.413,0,0,1,0,9.433c0-.6.438-.873,1.253-.873a3.1,3.1,0,0,0,1.8-.217C3.49,8.18,5.453,7.415,8.942,6a49.692,49.692,0,0,1,6-1.965c.871,0,1.364.327,1.417.928C16.141,7.143,15,10.306,12.98,14.5c-1.91,3.872-2.893,7.09-2.893,9.543a11.71,11.71,0,0,0,.055,1.364A6.512,6.512,0,0,0,14.4,29.119c1.91.435,3.87.873,5.78,1.253.382.382.435.709.164.928a1.6,1.6,0,0,1-1.2.489M24.975,8.233a.644.644,0,0,1-.435-.546c-.055-.272-.11-.489-.164-.707a4.765,4.765,0,0,0-1.31-1.419c-.6-.491-.926-.926-.926-1.308a1.31,1.31,0,0,1,.217-.707,1.492,1.492,0,0,1,1.037-.438,2.987,2.987,0,0,1,2.073,1.253c.546.493.818,1.746.818,3.819-.272.38-.707.38-1.308.053M31.683,6.27c-.382-.491-.709-.928-.981-1.308a13.782,13.782,0,0,0-1.582-2.126A2.628,2.628,0,0,1,28.3.544,1.614,1.614,0,0,1,29.446,0c.546,0,1.09.491,1.636,1.417.384.709.818,1.419,1.2,2.128a4.047,4.047,0,0,0,.546,1.2A2.86,2.86,0,0,1,33.318,6a1.442,1.442,0,0,1-.327.871,1.285,1.285,0,0,1-1.308-.6" transform="translate(178.802 3.708)" fill="#fff"/>
      <path id="パス_13" data-name="パス 13" d="M23.233,5.361a15.525,15.525,0,0,0-2.564.763c-.327,5.289-.656,10.633-1.036,15.922C19.25,28.1,18.762,33.28,18.161,37.7a1.671,1.671,0,0,1-.435.11c-.219,0-.329-.164-.329-.493v-.707c0-.382-.106-.6-.327-.709,0-.818.11-1.963.274-3.6.164-1.58.219-2.725.219-3.49a7.691,7.691,0,0,0-2.29-5.943,5.669,5.669,0,0,1-1.8-4.416c.164-.928.38-1.965.652-3a2.376,2.376,0,0,1,1.852-1.963,1.3,1.3,0,0,1,.985.108,2.55,2.55,0,0,0,.763.272,1.251,1.251,0,0,0,.435-.108,13.223,13.223,0,0,0,.38-3.382,13.661,13.661,0,0,0-.38-3.435A68.169,68.169,0,0,0,9.218,9.558,37.326,37.326,0,0,1,0,11.631v-.765c3.11-.926,6.27-1.8,9.433-2.725A76.023,76.023,0,0,0,18.541,4.76a1.961,1.961,0,0,0,.11-.654c0-.274-.053-.709-.11-1.308a8.1,8.1,0,0,1-.164-1.31c0-1.09.548-1.58,1.582-1.472.709.928,1.419,1.8,2.128,2.672a4.12,4.12,0,0,0,3,1.364c-.215.6-.814,1.037-1.85,1.31m-5.4,14.395a12.251,12.251,0,0,0-.38-3.382c-.711-.763-1.2-1.145-1.417-1.145-.274,0-.384.219-.384.709a5.172,5.172,0,0,0-.435,2.018,7.429,7.429,0,0,0,2.237,4.907,9.164,9.164,0,0,0,.38-3.108m3.11-16.141a.551.551,0,0,0-.6.435.412.412,0,0,0,.38.219.3.3,0,0,0,.329-.219.6.6,0,0,0,.053-.272.144.144,0,0,0-.164-.164" transform="translate(222.921 6.964)" fill="#fff"/>
      <path id="パス_14" data-name="パス 14" d="M8.777,3.445a7.553,7.553,0,0,1-.654,2.562,9.317,9.317,0,0,0-.816,2.4,4.041,4.041,0,0,0-1.965-.435,11.4,11.4,0,0,0-1.2.053,10.945,10.945,0,0,1-1.2.055A2.715,2.715,0,0,1,0,6.17,30.041,30.041,0,0,1,1.8,2.461,6.171,6.171,0,0,1,4.8.008,2.677,2.677,0,0,1,6.651.662,17.039,17.039,0,0,0,8.4,1.862a3.236,3.236,0,0,1,.38,1.582M3.707,2.189A3.741,3.741,0,0,0,2.071,4.806a3.843,3.843,0,0,0,.108.709c-.053.435.164.654.654.709A8,8,0,0,0,3.981,6.17a2.066,2.066,0,0,0,.926.219c1.2,0,1.8-.763,1.8-2.345a3.633,3.633,0,0,0-.11-.763A2.738,2.738,0,0,0,3.707,2.189" transform="translate(259.171 28.947)" fill="#fff"/>
    </g>
  </g>
</svg>
