<svg xmlns="http://www.w3.org/2000/svg" width="190.718" height="17.688" viewBox="0 0 190.718 17.688">
  <path id="パス_61" data-name="パス 61" d="M16.7-9.57a2.479,2.479,0,0,0-.11-.7,2.92,2.92,0,0,0-.418-.66.829.829,0,0,0-.616-.33.546.546,0,0,0-.462.286.574.574,0,0,0-.066.242.646.646,0,0,0,.242.418,3.242,3.242,0,0,1,.374.352,2.763,2.763,0,0,0,.2.462A1.546,1.546,0,0,1,15.972-9a.515.515,0,0,1-.154.374,1.073,1.073,0,0,0,.088.242c.044.154.11.242.2.242a.56.56,0,0,0,.154-.044A3.2,3.2,0,0,0,16.7-9.57ZM14.19-2.354a2.557,2.557,0,0,0,.176-.924,5.012,5.012,0,0,0-.286-1.54A2.953,2.953,0,0,0,11.9-5.7a6.988,6.988,0,0,0-2.464.572c-.748.33-1.5.682-2.244,1.034,0,.022,0-.77-.022-2.376A12.33,12.33,0,0,1,7.326-8.91a7.381,7.381,0,0,1,.33-1.848A1.974,1.974,0,0,1,8.932-11.99c-.022-.33-.286-.484-.792-.506a2.686,2.686,0,0,1-.946-.088,1.5,1.5,0,0,1-.506,1.408,4.216,4.216,0,0,1-1.364.616,5.618,5.618,0,0,0-1.364.594,8.877,8.877,0,0,0,2.794-.55c-.2,3.19-.352,5.61-.44,7.3-.308.33-.616.638-.946.968a1.643,1.643,0,0,0-.4,1.21,3.235,3.235,0,0,0,.836.55c.264.11.528.242.792.352.022-.2.066-.572.176-1.122A5.131,5.131,0,0,0,6.93-2.4a4.272,4.272,0,0,0-.044-.528,6.779,6.779,0,0,1,5.258-2.2,5.361,5.361,0,0,1,.594.022,1.671,1.671,0,0,1,.792.968c.066.4.154.792.22,1.21a1.38,1.38,0,0,1-.66.9c-.418.33-.638.55-.638.7A1.775,1.775,0,0,0,14.19-2.354ZM6.16-2.2a.484.484,0,0,1,.022.176,4.142,4.142,0,0,1-.308.7c-.11-.066-.154-.132-.154-.2s.088-.176.242-.33C6.116-1.98,6.182-2.09,6.16-2.2ZM32.45-15.466a.452.452,0,0,0-.176-.308l-.264-.264a4.272,4.272,0,0,0-.528-.044,4.23,4.23,0,0,0-3.278,1.5,3.9,3.9,0,0,0,1.562-.352,5.871,5.871,0,0,1,1.672-.528.223.223,0,0,1,.22.066.3.3,0,0,1,.066.264A.776.776,0,0,0,32.45-15.466Zm.726,1.892a3.709,3.709,0,0,0-2.178.44,2.662,2.662,0,0,0-.176.55c0,.022,0,.022.022.044a3.258,3.258,0,0,0,.374-.264.953.953,0,0,1,.55-.264.353.353,0,0,1,.242.11.408.408,0,0,1,.264.352c.022.176.022.352.044.528.088.506-.176.748-.77.77-.726.022-1.144.132-1.276.374.022.374.132.572.352.572a2.175,2.175,0,0,0,.638-.242,1.746,1.746,0,0,1,.7-.22.642.642,0,0,1,.2.044c.2.2.308.352.308.462a.43.43,0,0,1-.022.154,8.606,8.606,0,0,0-1.3.242,1.285,1.285,0,0,0-.88.748,1.452,1.452,0,0,0,.594.132,2.55,2.55,0,0,0,.616-.088A3.924,3.924,0,0,1,32.1-9.2a1.892,1.892,0,0,1,.352.022.642.642,0,0,1,.154.484v.528a2.013,2.013,0,0,1,.022.352.988.988,0,0,1-.528.924,4.895,4.895,0,0,1-1.144.308,4.644,4.644,0,0,0-1.144.33,6.962,6.962,0,0,1-.132-1.408,16.1,16.1,0,0,1,.132-1.782c.11-.858.154-1.452.176-1.782a2.051,2.051,0,0,1-.176-.9,4.841,4.841,0,0,1,.022-.506,4.475,4.475,0,0,0,.022-.484q0-.957-.594-1.188c.022.418.022.88.022,1.342,0,.7-.044,1.782-.11,3.256s-.11,2.6-.11,3.366c0,.506,0,.968.022,1.408.022.088.11.132.242.154q.165.033.2.132a1.518,1.518,0,0,1,1.21-1.232c.638-.132,1.254-.264,1.87-.374A4.483,4.483,0,0,0,33.33-8.91c0-.4-.044-1.012-.11-1.826-.088-.814-.132-1.408-.132-1.8A5.034,5.034,0,0,1,33.176-13.574Zm1.5,11.286a1.733,1.733,0,0,0-.462-.77,1.023,1.023,0,0,0-.682-.418c-.2,0-.308.154-.352.462a6.25,6.25,0,0,1,.616.616c.286.286.506.418.7.4C34.628-2.134,34.694-2.222,34.672-2.288Zm-4.4-.176a3,3,0,0,0-.924-.352q-.891-.165-.99-.2a.369.369,0,0,0-.264.352c0,.154.088.264.264.374A2.488,2.488,0,0,1,29-2.156,1.868,1.868,0,0,0,29.612-2,.719.719,0,0,0,30.272-2.464ZM26.906-5.192c-.022-.308-.22-.484-.572-.528-.374-.022-.7-.066-1.034-.088-.2.11-.286.22-.286.374,0,.374.4.55,1.166.55A.868.868,0,0,0,26.906-5.192Zm-1.056-6.16a.642.642,0,0,0,.044-.2c0-.286-.154-.418-.44-.418a.326.326,0,0,0-.154.022.883.883,0,0,1-.308-.638c0-.682,0-.968.022-.814a.455.455,0,0,1-.2-.308c0-.11.154-.286.484-.484a1.154,1.154,0,0,0,.55-.55.241.241,0,0,0-.2-.33,1.654,1.654,0,0,0-.528.044c-.572.22-1.144.44-1.694.682a7.806,7.806,0,0,1-1.782.484.523.523,0,0,0,.33.264.868.868,0,0,0,.528.022.807.807,0,0,1,.44-.176,1.282,1.282,0,0,1,.66.33.939.939,0,0,0,.682.286,1.468,1.468,0,0,1,.264.726q0,.462-.792.924a2.968,2.968,0,0,0-1.1.858,1.973,1.973,0,0,1-.044-.4,5.208,5.208,0,0,1,.484-1.826c-.242-.242-.44-.33-.594-.286a.436.436,0,0,0-.154.418c.022.33.022.484.022.484a49.3,49.3,0,0,0-3.058,7.59A6.7,6.7,0,0,0,20.7-6.974a11.622,11.622,0,0,1,1.232-2.464c.242.462.462.946.682,1.408a2.428,2.428,0,0,0,1.056,1.056,16.916,16.916,0,0,1,.176,2.42,16.916,16.916,0,0,1-.176,2.42.4.4,0,0,0,.154.11A.1.1,0,0,0,23.958-2a8.155,8.155,0,0,0,.616-3.058,5.009,5.009,0,0,0-.286-1.76A.874.874,0,0,0,24.4-7.5a1.521,1.521,0,0,1,0-.66,1.181,1.181,0,0,0,.88-.726,4.86,4.86,0,0,0,.308-1.232A4.375,4.375,0,0,1,25.85-11.352Zm-2.6,7.128A.68.68,0,0,0,23.21-4.4c-.022-.066-.11-.088-.22-.088-.22.022-.33.022-.33.022a2.992,2.992,0,0,1-.594-.726.6.6,0,0,0-.4-.154c-.418,0-.572.242-.462.7a1.641,1.641,0,0,0,1.628.726.168.168,0,0,0,.11.044C23.144-3.872,23.254-3.982,23.254-4.224Zm1.584-6.27a7.6,7.6,0,0,0-1.012,0c0-.132.11-.264.352-.4a1.327,1.327,0,0,1,.638-.2c.154,0,.22.044.22.154A.9.9,0,0,1,24.838-10.494Zm-.44.88a1.181,1.181,0,0,1,.11.418c0,.2-.154.352-.44.484a1.549,1.549,0,0,0-.682.44A2.634,2.634,0,0,0,23.1-9.328a3.411,3.411,0,0,1-.352-.946c0-.088.044-.132.11-.132a1.266,1.266,0,0,1,.528.242.326.326,0,0,0-.022.154.648.648,0,0,0,.22.462.571.571,0,0,0,.44.22A.408.408,0,0,0,24.4-9.614Zm25.5-.66c-.2-.286-.374-.55-.55-.836a.985.985,0,0,0-.7-.506c-.2.022-.308.2-.374.484A7.434,7.434,0,0,1,49.632-7.26a4.405,4.405,0,0,1-.154,1.188,1.64,1.64,0,0,0-.044,1.078.418.418,0,0,0,.308-.066.55.55,0,0,1,.176-.088,6.8,6.8,0,0,0,.506-2.574A5.948,5.948,0,0,0,49.9-10.274ZM39.424-9.108c-.22-.55-.418-.88-.616-.968a1.2,1.2,0,0,0-.286.44q.726,3.729,1.056,5.61c.506,1.562,1.166,2.442,1.98,2.6.88-.022,1.8-.7,2.794-2.024.066-.33.022-.484-.132-.484a4.916,4.916,0,0,0-1.012.9,3.219,3.219,0,0,1-1.078.792c-.374.066-.748-.132-1.166-.594A13.632,13.632,0,0,1,40.018-5.9C39.82-6.974,39.622-8.03,39.424-9.108Zm24.64,5.742L62.15-2.112a3.939,3.939,0,0,1-2.156.66,5.128,5.128,0,0,1-1.342-3.7,21.952,21.952,0,0,1,.264-2.75,21.442,21.442,0,0,0,.264-2.794,6.6,6.6,0,0,0-.088-1.166q-.363-.561-.594-.594c.022.242.022.484.022.77,0,.462-.044,1.1-.132,1.958-.11.924-.154,1.584-.176,1.958-.022.242-.044.748-.11,1.518q-.066.99-.066,1.584c0,1.738.44,2.948,1.342,3.652a1.269,1.269,0,0,0,.814.286,2.264,2.264,0,0,0,1.078-.352c.66-.352.99-.528,1.012-.55.352-.242.7-.506,1.034-.748A1.809,1.809,0,0,0,64.064-3.366Zm18.92.2c-.022-.286-.2-.462-.55-.528-.594-.132-.9-.2-.9-.2a2.805,2.805,0,0,1-.418.022c-1.21,0-1.8-.726-1.8-2.2,0-.22.022-.572.044-1.034S79.4-7.92,79.4-8.14a3.217,3.217,0,0,0-.22-1.342,2.29,2.29,0,0,1,.968-.352,2.273,2.273,0,0,0,.946-.374c-.11-.286-.286-.44-.484-.44a2.582,2.582,0,0,0-.77.286c-.33.154-.594.176-.77.022-.022-.22-.044-.44-.044-.66,0-.968.242-1.452.7-1.452a1.355,1.355,0,0,1,.792.352.313.313,0,0,0,.044-.132.955.955,0,0,0-.484-.726c-.7-.11-1.012-.638-.9-1.606a.492.492,0,0,0-.22-.066c-.22,0-.33.308-.33.946a1.275,1.275,0,0,0-.22.2q-.165.2-.264.2c-.044,0-.088-.044-.132-.11a2.046,2.046,0,0,1-.528,0c-.33-.022-.528-.044-.594-.044-.418,0-.682.154-.77.484a2.164,2.164,0,0,0,1.188.374,2.683,2.683,0,0,0,.7-.088,1.944,1.944,0,0,1,.33,1.254v1.364a8.362,8.362,0,0,1-2.156.99,8.862,8.862,0,0,0-2.09.924c0,.242.044.4.11.44a10.386,10.386,0,0,1,2.046-.814c.682-.22,1.386-.44,2.09-.638a9.945,9.945,0,0,1,.352,2.068q.165,1.98.2,2.178a1.064,1.064,0,0,1-.748.374,3.923,3.923,0,0,0-.858.176,7.391,7.391,0,0,1-.924.7,1.205,1.205,0,0,0-.572.924,1.514,1.514,0,0,0,.044.286c.088.242.374.484.88.726a5.053,5.053,0,0,0,1.628.352A1.867,1.867,0,0,0,79.794-2a1.3,1.3,0,0,0,.044-.308,2.123,2.123,0,0,0-.088-.528,2.032,2.032,0,0,1-.088-.484A.448.448,0,0,1,79.9-3.74,13.775,13.775,0,0,0,82.984-3.168Zm-4.092.286c.066.55-.066.858-.44.88-1.122-.2-1.76-.528-1.892-1.012a4.571,4.571,0,0,1,1.936-.9c.308,0,.462.176.462.55A2.272,2.272,0,0,1,78.892-2.882Zm21.1-9.13a1.666,1.666,0,0,1-1.21-.55c-.286-.352-.572-.7-.858-1.078-.418-.044-.638.154-.638.594a3.337,3.337,0,0,0,.066.528c.022.242.044.418.044.528a.821.821,0,0,1-.044.264,30.686,30.686,0,0,1-3.674,1.364c-1.276.374-2.552.726-3.806,1.1v.308a15.065,15.065,0,0,0,3.718-.836A27.578,27.578,0,0,1,97.2-10.846,5.459,5.459,0,0,1,97.35-9.46,5.284,5.284,0,0,1,97.2-8.1a.518.518,0,0,1-.176.044,1.038,1.038,0,0,1-.308-.11.521.521,0,0,0-.4-.044.961.961,0,0,0-.748.792c-.11.418-.2.836-.264,1.21a2.289,2.289,0,0,0,.726,1.782,3.1,3.1,0,0,1,.924,2.4c0,.308-.022.77-.088,1.408-.066.66-.11,1.122-.11,1.452.088.044.132.132.132.286v.286q0,.2.132.2a.68.68,0,0,0,.176-.044c.242-1.782.44-3.872.594-6.314.154-2.134.286-4.29.418-6.424a6.4,6.4,0,0,1,1.034-.308A.972.972,0,0,0,99.99-12.012Zm-1.606-.11a.239.239,0,0,1-.022.11.121.121,0,0,1-.132.088.166.166,0,0,1-.154-.088.223.223,0,0,1,.242-.176A.058.058,0,0,1,98.384-12.122Zm-1.474,7.7a3,3,0,0,1-.9-1.98,2.082,2.082,0,0,1,.176-.814c0-.2.044-.286.154-.286.088,0,.286.154.572.462a4.956,4.956,0,0,1,.154,1.364A3.71,3.71,0,0,1,96.91-4.422Zm14.74-9.922c-.022-.11-.154-.176-.4-.176a35.167,35.167,0,0,0-.7,6.028,17.177,17.177,0,0,0,.11,1.892.454.454,0,0,0,.154.726c.066.022.154,0,.264-.11.088-.11.154-.154.176-.154A56.049,56.049,0,0,1,111.65-14.344Zm0,11.836a2.218,2.218,0,0,1-.308-.682c-.11-.352-.242-.528-.374-.528-.11,0-.264.11-.44.33a1.1,1.1,0,0,0-.044.264.5.5,0,0,0,.2.4,3.381,3.381,0,0,0,.418.374h.33A.2.2,0,0,0,111.65-2.508Zm23.232-11.726a10.511,10.511,0,0,0-2.552,7,10.722,10.722,0,0,0,.22,2.222c.154.66.286,1.32.44,1.98a1.608,1.608,0,0,0,1.3,1.254A3.141,3.141,0,0,0,134.6-2.4a2.5,2.5,0,0,0-.594-.44,6.149,6.149,0,0,1-.836-2.9c-.066-1.034-.11-2.046-.176-3.08.066-.2.352-1.1.858-2.728A15.3,15.3,0,0,1,134.882-14.234Zm12.628,1.188a2.061,2.061,0,0,0-.814-.154,5.432,5.432,0,0,0-1.342.242,7.122,7.122,0,0,1-1.32.308,1.456,1.456,0,0,1-.682-.528,1.588,1.588,0,0,0-.66-.484.646.646,0,0,0-.088.352,2.393,2.393,0,0,0,.528,1.122,2.919,2.919,0,0,0,.99.154,6.956,6.956,0,0,0,2.09-.44c.154.066.242.154.242.242a.717.717,0,0,1-.066.22.668.668,0,0,0-.066.242.518.518,0,0,0,.044.176c.286.022.506-.154.7-.528C147.224-12.43,147.356-12.738,147.51-13.046Zm6.754,6.138a.262.262,0,0,0-.088-.242l-.2-.2A62.334,62.334,0,0,0,139.458-5.9c-.308,0-.462.176-.462.55a.25.25,0,0,0,.066.176.4.4,0,0,0,.33.154.905.905,0,0,0,.682-.44c1.562-.22,3.146-.44,4.708-.66,1.87-.264,3.476-.44,4.774-.506a.461.461,0,0,0,.176.132c.066.044.154,0,.286-.132-.22.022.506.022,2.156.022A5.734,5.734,0,0,0,154.264-6.908ZM168.652-2.75l-.44-10.67a.664.664,0,0,1-.11-.44.627.627,0,0,0-.176-.44,3.537,3.537,0,0,0-1.386-.264,11.647,11.647,0,0,0-3.41.88c-.286,0-.418.132-.418.4a.349.349,0,0,0,.242.33,6.83,6.83,0,0,1,3.168-.9,4.927,4.927,0,0,1,1.254.176c.088.88.154,2.178.22,3.872.066,1.848.154,3.19.22,4,.022.066,0,.11-.066.176s-.088.11-.088.132c0,.044.044.088.154.132a1.066,1.066,0,0,0,0,.4.347.347,0,0,1-.154.33,3.135,3.135,0,0,0-1.584-.4A10.022,10.022,0,0,0,164.3-4.8a12.392,12.392,0,0,1-1.782.308,2.336,2.336,0,0,1-1.1.352q-.726.1-.792.66a7.1,7.1,0,0,0,2.42-.352c1.518-.418,2.332-.638,2.42-.66a3.97,3.97,0,0,1,.594.066,2.155,2.155,0,0,0,.506.088.609.609,0,0,0,.2-.022.6.6,0,0,0,.418.176.486.486,0,0,0,.484-.308c.066.066.132.11.2.176a.248.248,0,0,1,.066.242s.044.286.154.858A.461.461,0,0,0,168.652-2.75Zm-2.618-4.224a.826.826,0,0,0,.022-.22q0-.363-.462-.528-.66-.231-.726-.264c.022-.066.11-.286.286-.66a1.555,1.555,0,0,0,.2-.682,1.115,1.115,0,0,0-.044-.286,1.125,1.125,0,0,0-1.166-.44c-.2.308-.374.462-.506.462-.11,0-.242-.22-.352-.638a1.67,1.67,0,0,0-.33-.7.731.731,0,0,0-.44.66,2.581,2.581,0,0,0,.308.924,3.272,3.272,0,0,1,.308.9.56.56,0,0,0,.154.044c.154,0,.242-.11.264-.352a.706.706,0,0,1,.132-.418,2.372,2.372,0,0,0,.748-.154,1.7,1.7,0,0,1,.044.33,1.8,1.8,0,0,1-.418,1.012,8.68,8.68,0,0,0-.638,1.012,5.442,5.442,0,0,0,.792-.088,8.9,8.9,0,0,1,.946-.066A2.1,2.1,0,0,1,166.034-6.974ZM159.9-12.518c-.066-.2-.154-.418-.22-.638a.413.413,0,0,0-.506-.264v3.938a16.765,16.765,0,0,1-.4,3.036,15.293,15.293,0,0,0-.418,2.948,5.175,5.175,0,0,0,.088,1.034Q159.269-5.4,159.5-6.49a20.5,20.5,0,0,0,.484-4.29A15.073,15.073,0,0,0,159.9-12.518Zm22.11,1.3a3.2,3.2,0,0,0-2.068-.418c0,.022-.088.066-.286.176a.308.308,0,0,0-.176.242.43.43,0,0,0,.022.154.793.793,0,0,1,.33.176c.132.132.22.2.286.2a.166.166,0,0,0,.154-.088,1.072,1.072,0,0,1,.55-.132c.11,0,.308.022.55.044.242.044.418.066.484.088C181.962-10.824,182.006-10.978,182.006-11.22Zm2.178,8.03a.736.736,0,0,0-.286-.726,37.611,37.611,0,0,0-.4-4.532,33.823,33.823,0,0,1-.418-4.488,13.341,13.341,0,0,1,.088-1.65,1.1,1.1,0,0,0,.044-.264c0-.55-.616-.814-1.826-.748a4.558,4.558,0,0,1-.66.242c-.286.088-.44.242-.462.484a.947.947,0,0,1,.154.154c.066.11.11.154.154.154.022,0,.066-.044.088-.132a3.259,3.259,0,0,1,1.012-.2.931.931,0,0,1,.77.308,15.455,15.455,0,0,0-.088,1.76,33.251,33.251,0,0,0,.352,4.158,37.629,37.629,0,0,1,.33,4.092c0,.33,0,.66-.022.99a5.484,5.484,0,0,1-1.3.132c-.2,0-.506,0-.924-.022s-.726-.022-.924-.022a3.3,3.3,0,0,0-2.4.748.175.175,0,0,0,.044.2,1.306,1.306,0,0,0,.088.132,15.521,15.521,0,0,1,3.322-.4A14.722,14.722,0,0,0,184.184-3.19Zm-2.618-5.368a.747.747,0,0,0-.66-.484l-.792-.132a.881.881,0,0,1-.308.2.31.31,0,0,0-.176.264.429.429,0,0,0,.022.154,1.753,1.753,0,0,0,1.012.286.452.452,0,0,1,.308.4V-7.3c.022.22.11.33.308.33a1.852,1.852,0,0,0,.44-1.078A.812.812,0,0,0,181.566-8.558Zm-3.08-2.794a14.5,14.5,0,0,0-.264-1.8,3.161,3.161,0,0,0-.9-1.54.333.333,0,0,0-.308-.154c-.2,0-.308.088-.308.242a.518.518,0,0,0,.044.176,6.012,6.012,0,0,1,1.034,3.586,20.848,20.848,0,0,1-.33,3.146c-.242,1.474-.4,2.508-.418,3.058a8.027,8.027,0,0,1-.154.836,3.226,3.226,0,0,0-.154.836.679.679,0,0,0,.022.22,10.438,10.438,0,0,0,1.276-4.07C178.178-8.338,178.332-9.834,178.486-11.352Zm16.192,2.244a12.4,12.4,0,0,0-2.64-5.236.545.545,0,0,0-.462-.242c-.308,0-.44.176-.418.506a10.959,10.959,0,0,1,1.078,1.342c.33.462.638.946.968,1.408A8.918,8.918,0,0,1,194-7.48a8.879,8.879,0,0,1-1.232,4.8,1.626,1.626,0,0,1-.132.44,1.263,1.263,0,0,0-.154.44c0,.11.066.176.22.176a1.437,1.437,0,0,0,.242-.044,8.657,8.657,0,0,0,.792-1.628l.66-1.716a9.617,9.617,0,0,0,.154-2.046A8.569,8.569,0,0,1,194.678-9.108Z" transform="translate(-3.96 16.082)" fill="#333"/>
</svg>
