<svg xmlns="http://www.w3.org/2000/svg" width="241.603" height="16.676" viewBox="0 0 241.603 16.676">
  <path id="パス_58" data-name="パス 58" d="M18.106-11.4a2,2,0,0,0-1.672-.638,9.057,9.057,0,0,0-1.144.088,8.842,8.842,0,0,1-.99.088c.022-.528.022-1.056.044-1.584a1.418,1.418,0,0,1,.858-1.32,1.011,1.011,0,0,0-.638-.308,1.417,1.417,0,0,0-.7.308,2.938,2.938,0,0,1-.726.44c-.374.132-.572.308-.572.506a.268.268,0,0,0,.132.22,1.539,1.539,0,0,0,.88-.154.515.515,0,0,1,.154.374,1.806,1.806,0,0,1-.088.44,1.226,1.226,0,0,0-.066.528c-.066.484-.462.836-1.188,1.078s-1.1.572-1.166.968a8.174,8.174,0,0,0,2.442-.55,8.723,8.723,0,0,1,2.552-.528,5.394,5.394,0,0,1,.594.044c.2.088.308.176.308.242,0,.022-.088.088-.264.176s-.264.176-.264.286a.121.121,0,0,0,.088.132.372.372,0,0,0,.22.066A1.454,1.454,0,0,0,18.106-11.4Zm-1.3,7.3a1.278,1.278,0,0,1-.9-1.364,10.421,10.421,0,0,1,.2-1.474,4.848,4.848,0,0,0,.088-1.408,1.714,1.714,0,0,0-.682-.132,4.933,4.933,0,0,0-1.65.418c-.154-.484-.4-.682-.726-.572A3.55,3.55,0,0,0,12.98-7.5a12.138,12.138,0,0,0,.088,1.3,12.8,12.8,0,0,1,.088,1.342A4.041,4.041,0,0,1,13-3.652q.1.528.594.4c.418-.11.7-.11.858.044A4.579,4.579,0,0,1,16.808-4.092Zm-8.36-8.316a1.161,1.161,0,0,0-1.3,0,2.229,2.229,0,0,1,.4-1.386A3.205,3.205,0,0,0,8.03-15.2c.022-.066-.022-.154-.154-.286q-.132.231-1.122,1.98A18.614,18.614,0,0,0,5.7-11.4a.469.469,0,0,0,.264.066,1.258,1.258,0,0,0,.506-.2,1.524,1.524,0,0,1,.55-.176.644.644,0,0,1,.418.176A5,5,0,0,0,6.028-7.59c0,.462.044,1.3.154,2.486A15.307,15.307,0,0,1,6.248-2.75c.066.11.154.242.242.374a.316.316,0,0,0,.286.22A.782.782,0,0,0,7-2.2c-.11-1.122-.154-2.376-.154-3.718S6.886-8.558,7-9.79A5.343,5.343,0,0,0,8.448-12.408Zm1.606,6.864C9.5-6.38,9.02-6.776,8.6-6.71c-.2.132-.308.264-.308.374s.11.22.33.374a1.466,1.466,0,0,1,.418.418.7.7,0,0,0,.506.154A.7.7,0,0,0,10.054-5.544ZM5.7-3.366A3.974,3.974,0,0,1,4.356-5.39.43.43,0,0,0,4.2-5.412c-.264,0-.352.2-.286.594A2.46,2.46,0,0,0,4.8-3.212a.453.453,0,0,0,.374.154A.569.569,0,0,0,5.7-3.366Zm9.5-4.356a2.108,2.108,0,0,0-.176,1.562,5.862,5.862,0,0,1,.154,1.606c-.11.484-.55.726-1.32.748a4.272,4.272,0,0,1-.044-.528,7.885,7.885,0,0,1,.132-1.21,10.977,10.977,0,0,0,.11-1.21,4.272,4.272,0,0,0-.044-.528.782.782,0,0,0,.22.044A.841.841,0,0,0,14.7-7.5.635.635,0,0,1,15.2-7.722ZM34.694-9.9a4.093,4.093,0,0,0-1.386-1.386,9.015,9.015,0,0,1-1.518-1.232,6.026,6.026,0,0,1,1.166-.572,1.116,1.116,0,0,0,.044-.2c0-.154-.22-.242-.638-.242a1.36,1.36,0,0,1-1.056.418,3.6,3.6,0,0,1-.44-.022,3.789,3.789,0,0,0-.44-.022.924.924,0,0,0-.814.352.526.526,0,0,1,.22.374c0,.132-.176.308-.528.55-.374.242-.572.462-.594.682a.539.539,0,0,0,.352.176c.176,0,.44-.176.77-.506a1.7,1.7,0,0,1,.792-.55,1.314,1.314,0,0,0,.572.374.716.716,0,0,1,.44.506l-1.518.858a10.371,10.371,0,0,1-1.562.726,1.894,1.894,0,0,1-.44-1.452A13.288,13.288,0,0,0,29.9-14.872.461.461,0,0,0,29.722-15a1.887,1.887,0,0,0-.88,1.144c-.2.506-.374.99-.572,1.5a1.735,1.735,0,0,0-.814,1.562,11.4,11.4,0,0,0,.374,1.914,8.263,8.263,0,0,0,4.246-2.178,3.114,3.114,0,0,1,1.166.638,2.348,2.348,0,0,0,1.188.572A1.1,1.1,0,0,0,34.694-9.9ZM32.076-2.31a2.767,2.767,0,0,1-.264-1.276,4.864,4.864,0,0,0-.176-1.342,7.994,7.994,0,0,1-.154-1.782c.022-1.254.022-1.87.022-1.848a1.234,1.234,0,0,0-.66-.22,1.488,1.488,0,0,0-.9.44A2.663,2.663,0,0,1,29-7.722a24,24,0,0,0-.154,2.882A23.877,23.877,0,0,0,29-1.98a1.227,1.227,0,0,0,.77.308,3.362,3.362,0,0,0,1.122-.374A2.247,2.247,0,0,1,32.076-2.31Zm-5.7-8.47a.609.609,0,0,0-.2-.022,1.5,1.5,0,0,0-.462.088,1.681,1.681,0,0,1-.462.11.484.484,0,0,1-.176-.022c-.22-.33-.4-.484-.528-.484-.11,0-.242.154-.418.484-.2.33-.4.484-.616.484a.782.782,0,0,1-.22-.044v-1.65a6.924,6.924,0,0,1,.154-1.694.576.576,0,0,1-.132-.33v-.506a.357.357,0,0,0-.308-.352,12.409,12.409,0,0,0-.4,2.31l-.2,2.376a2.166,2.166,0,0,1-.968.616q-.858.3-1.056.4c-.044.044-.418.242-1.1.616a1.1,1.1,0,0,0-.682,1.012,2.284,2.284,0,0,1,.264.154.544.544,0,0,0,.33.154.279.279,0,0,0,.132-.022A1.533,1.533,0,0,1,20.372-8.36c.55-.176,1.078-.352,1.628-.528-.022.11-.11.572-.22,1.364a6.244,6.244,0,0,1-.374,1.43c.572.506,1.144,1.034,1.738,1.562a2.747,2.747,0,0,1,.924,1.87,1.925,1.925,0,0,1-.044.352.206.206,0,0,0,.176.132.484.484,0,0,0,.264-.132,1.3,1.3,0,0,1,.176-.11,1.284,1.284,0,0,0,.132-.572,2.293,2.293,0,0,0-.308-1.056A2.06,2.06,0,0,1,23.43-5.72a5.481,5.481,0,0,1,.682-2.046A4.718,4.718,0,0,0,24.75-9.9c.33-.11.638-.2.968-.286A1,1,0,0,0,26.378-10.78Zm4.246,2.948v-.176c-.022.374-.044.77-.066,1.144-.066.44-.22.7-.506.77q-.33-.033-.33-.594v-.858a.555.555,0,0,0,.374.132C30.426-7.414,30.6-7.546,30.624-7.832Zm.154,5.082a1.932,1.932,0,0,1-.858.33c-.242,0-.374-.176-.374-.528a5.23,5.23,0,0,1,.132-.88,7.6,7.6,0,0,0,.11-.88.771.771,0,0,0-.066-.352.424.424,0,0,0,.22.066,1.114,1.114,0,0,0,.374-.11.884.884,0,0,1,.286-.088c.132,0,.2.132.176.418a1.162,1.162,0,0,0-.022.286,3.014,3.014,0,0,0,.088.66,3.043,3.043,0,0,1,.088.616A.62.62,0,0,1,30.778-2.75Zm-7.04-6.71c-.044.132-.176.7-.418,1.694a5.614,5.614,0,0,1-.594,1.54.949.949,0,0,1-.308-.7A3.148,3.148,0,0,1,22.7-7.986a3.766,3.766,0,0,0,.308-1.034C23.034-9.306,23.276-9.46,23.738-9.46ZM47.124-3.366,45.21-2.112a3.939,3.939,0,0,1-2.156.66,5.128,5.128,0,0,1-1.342-3.7,21.953,21.953,0,0,1,.264-2.75,21.442,21.442,0,0,0,.264-2.794,6.6,6.6,0,0,0-.088-1.166q-.363-.561-.594-.594c.022.242.022.484.022.77,0,.462-.044,1.1-.132,1.958-.11.924-.154,1.584-.176,1.958-.022.242-.044.748-.11,1.518q-.066.99-.066,1.584c0,1.738.44,2.948,1.342,3.652a1.269,1.269,0,0,0,.814.286,2.264,2.264,0,0,0,1.078-.352c.66-.352.99-.528,1.012-.55.352-.242.7-.506,1.034-.748A1.809,1.809,0,0,0,47.124-3.366Zm18.92.2c-.022-.286-.2-.462-.55-.528-.594-.132-.9-.2-.9-.2a2.805,2.805,0,0,1-.418.022c-1.21,0-1.8-.726-1.8-2.2,0-.22.022-.572.044-1.034s.044-.814.044-1.034a3.217,3.217,0,0,0-.22-1.342,2.29,2.29,0,0,1,.968-.352,2.273,2.273,0,0,0,.946-.374c-.11-.286-.286-.44-.484-.44a2.582,2.582,0,0,0-.77.286c-.33.154-.594.176-.77.022-.022-.22-.044-.44-.044-.66,0-.968.242-1.452.7-1.452a1.355,1.355,0,0,1,.792.352.313.313,0,0,0,.044-.132.955.955,0,0,0-.484-.726c-.7-.11-1.012-.638-.9-1.606a.492.492,0,0,0-.22-.066c-.22,0-.33.308-.33.946a1.276,1.276,0,0,0-.22.2q-.165.2-.264.2c-.044,0-.088-.044-.132-.11a2.046,2.046,0,0,1-.528,0c-.33-.022-.528-.044-.594-.044-.418,0-.682.154-.77.484a2.164,2.164,0,0,0,1.188.374,2.683,2.683,0,0,0,.7-.088,1.944,1.944,0,0,1,.33,1.254v1.364a8.362,8.362,0,0,1-2.156.99,8.862,8.862,0,0,0-2.09.924c0,.242.044.4.11.44a10.386,10.386,0,0,1,2.046-.814c.682-.22,1.386-.44,2.09-.638a9.946,9.946,0,0,1,.352,2.068q.165,1.98.2,2.178a1.064,1.064,0,0,1-.748.374,3.923,3.923,0,0,0-.858.176,7.39,7.39,0,0,1-.924.7,1.205,1.205,0,0,0-.572.924,1.514,1.514,0,0,0,.044.286c.088.242.374.484.88.726a5.053,5.053,0,0,0,1.628.352A1.867,1.867,0,0,0,62.854-2,1.3,1.3,0,0,0,62.9-2.31a2.124,2.124,0,0,0-.088-.528,2.032,2.032,0,0,1-.088-.484.448.448,0,0,1,.242-.418A13.775,13.775,0,0,0,66.044-3.168Zm-4.092.286c.066.55-.066.858-.44.88-1.122-.2-1.76-.528-1.892-1.012a4.571,4.571,0,0,1,1.936-.9c.308,0,.462.176.462.55A2.272,2.272,0,0,1,61.952-2.882ZM81-3.366,79.09-2.112a3.939,3.939,0,0,1-2.156.66,5.128,5.128,0,0,1-1.342-3.7,21.952,21.952,0,0,1,.264-2.75,21.443,21.443,0,0,0,.264-2.794,6.6,6.6,0,0,0-.088-1.166q-.363-.561-.594-.594c.022.242.022.484.022.77,0,.462-.044,1.1-.132,1.958-.11.924-.154,1.584-.176,1.958-.022.242-.044.748-.11,1.518q-.066.99-.066,1.584c0,1.738.44,2.948,1.342,3.652a1.269,1.269,0,0,0,.814.286,2.264,2.264,0,0,0,1.078-.352c.66-.352.99-.528,1.012-.55.352-.242.7-.506,1.034-.748A1.809,1.809,0,0,0,81-3.366Zm19.03-6.028a1.028,1.028,0,0,0-.616-.594,2.191,2.191,0,0,1-.792-.132,3.143,3.143,0,0,0-.792-.154.573.573,0,0,0-.594.44.982.982,0,0,0,.682.352c.506.066.748.088.77.088.4.132.594.33.594.572,0,.11-.11.22-.308.286q.033.033,0,.33a.265.265,0,0,0,.176.264,1.08,1.08,0,0,0,.616-.594Q99.77-8.569,100.034-9.394Zm.572,6.6a8.36,8.36,0,0,0-1.122,0,2.816,2.816,0,0,1-1.078-.176c-.176,0-.4-.176-.638-.528-.264-.33-.44-.506-.55-.506-.154,0-.286.2-.418.594a2.326,2.326,0,0,0,2.178,1.342c.33-.066.638-.154.946-.22A.862.862,0,0,0,100.606-2.794ZM95.194-13.068a1.05,1.05,0,0,0-.55-.242c-.2,0-.44.2-.726.616s-.594.572-.924.506a.266.266,0,0,1-.132-.2.42.42,0,0,1,.154-.264.873.873,0,0,0,.154-.264.514.514,0,0,0-.528-.33.481.481,0,0,0-.528.33,1.837,1.837,0,0,1,.176.682c0,.374-.286.7-.88.946a2.7,2.7,0,0,0-1.188.726,1.115,1.115,0,0,0,.286.044,2.515,2.515,0,0,0,.572-.11,2.123,2.123,0,0,1,.528-.088.453.453,0,0,1,.374.154,12.633,12.633,0,0,0-.4,2.354c-.066.814-.132,1.65-.2,2.464.022.11,0,.792-.022,2.09a4.708,4.708,0,0,0,.352,2.024,35.75,35.75,0,0,0,.374-3.828c.11-1.826.22-3.124.352-3.938a2.144,2.144,0,0,1-.11-.616,2.109,2.109,0,0,1,1.188-1.716A6.887,6.887,0,0,0,95.194-13.068Zm13.684,9.042a6.871,6.871,0,0,1-.7-.484,1.078,1.078,0,0,0-.748-.264,2.485,2.485,0,0,0-1.21.99,12.055,12.055,0,0,0-.726,1.5,1.1,1.1,0,0,0,1.188.77,4.475,4.475,0,0,0,.484-.022,4.475,4.475,0,0,1,.484-.022,1.624,1.624,0,0,1,.792.176,3.785,3.785,0,0,1,.33-.968,3.062,3.062,0,0,0,.264-1.034A1.3,1.3,0,0,0,108.878-4.026Zm-.726.572a1.486,1.486,0,0,1,.044.308c0,.638-.242.946-.726.946a.838.838,0,0,1-.374-.088,3.249,3.249,0,0,1-.462.022c-.2-.022-.286-.11-.264-.286a1.514,1.514,0,0,1-.044-.286,1.508,1.508,0,0,1,.66-1.056A1.105,1.105,0,0,1,108.152-3.454Zm26.73-10.78a10.511,10.511,0,0,0-2.552,7,10.722,10.722,0,0,0,.22,2.222c.154.66.286,1.32.44,1.98a1.608,1.608,0,0,0,1.3,1.254A3.141,3.141,0,0,0,134.6-2.4a2.5,2.5,0,0,0-.594-.44,6.149,6.149,0,0,1-.836-2.9c-.066-1.034-.11-2.046-.176-3.08.066-.2.352-1.1.858-2.728A15.3,15.3,0,0,1,134.882-14.234ZM149.754-9.5a3.986,3.986,0,0,0-1.408.176c-.506.154-.99.286-1.5.418a8.23,8.23,0,0,1-.726-2.332,1.975,1.975,0,0,1,1.452-.594,2.112,2.112,0,0,1,.726.132.97.97,0,0,1,.264-.374.7.7,0,0,0,.242-.418.782.782,0,0,0-.044-.22,3.79,3.79,0,0,0-1.364.286c-.814.286-1.254.44-1.276.44a1.172,1.172,0,0,1-.528-.858,7.616,7.616,0,0,0-.2-1.034c-.176-.44-.4-.66-.682-.66a.355.355,0,0,0-.2.066,1.066,1.066,0,0,0-.066.4,3.445,3.445,0,0,0,.264,1.144,7.015,7.015,0,0,1,.4,1.122,2.57,2.57,0,0,1-1.012.44,5.681,5.681,0,0,0-1.034.4.741.741,0,0,0,.616.308,2.837,2.837,0,0,0,.792-.154,2.865,2.865,0,0,1,.77-.154,2.748,2.748,0,0,1,.374,1.056,2.406,2.406,0,0,0,.352,1.012,12.948,12.948,0,0,1-2.2,1.012,5.622,5.622,0,0,0-2,1.166.344.344,0,0,0,.374.154,1.7,1.7,0,0,1,.462.022,8.243,8.243,0,0,1,1.65-.836c.176-.066.748-.286,1.716-.616a33.832,33.832,0,0,1,2.046,5.522,1.053,1.053,0,0,1,.154.638v.242a1.08,1.08,0,0,0-.022.242.9.9,0,0,0,.33.792q.1.033.264-.132c.088-.088.154-.132.176-.154a18.169,18.169,0,0,0-.792-3.74c-.374-1.188-.726-2.376-1.1-3.586a2.544,2.544,0,0,1,1.584-.506C149.314-8.756,149.688-9.02,149.754-9.5ZM167.332-12.3a2.033,2.033,0,0,1,.132-.77,2.865,2.865,0,0,0,.154-.77.747.747,0,0,0-.44-.7.736.736,0,0,0-.44.726,6.518,6.518,0,0,1-.022.9,53.077,53.077,0,0,1-5.236,11.4A31.874,31.874,0,0,0,167.332-12.3Zm-5.852.836a1.105,1.105,0,0,1-.836-.33,8.03,8.03,0,0,1-.792-.682,2.826,2.826,0,0,1-.638-.352,1.489,1.489,0,0,0-.7-.286.5.5,0,0,0-.4.2,2.377,2.377,0,0,0,1.188,1.342,17.959,17.959,0,0,0,1.716.726l.308-.308A.384.384,0,0,0,161.48-11.462Zm16.786.572c-.022-.858-.616-1.584-1.738-2.134a2.952,2.952,0,0,1-.814-.55,1.1,1.1,0,0,0-.924-.308.946.946,0,0,1-.154.154.265.265,0,0,0-.088.264,2.944,2.944,0,0,0,1.144,1.012,8.24,8.24,0,0,1,1.3.836,1.755,1.755,0,0,1,.55,1.43c0,.11.132.154.4.154a.408.408,0,0,0,.286-.374C178.244-10.692,178.266-10.868,178.266-10.89Zm10.472-.022a.276.276,0,0,0-.022-.2.234.234,0,0,0-.176-.022L182.4-6.974a67.59,67.59,0,0,1-6.27,3.806,4.508,4.508,0,0,1-.9.33.657.657,0,0,0-.594.616.457.457,0,0,0,.22.132.444.444,0,0,0,.242,0,2.092,2.092,0,0,1,.308-.022,23.079,23.079,0,0,0,4.8-2.662c1.452-.968,2.9-1.936,4.356-2.882A33.491,33.491,0,0,0,188.738-10.912Zm8.932,3.5.286-.286a7.036,7.036,0,0,1-.638-.814c-.286-.374-.528-.55-.726-.55a.689.689,0,0,0-.528.352,1.139,1.139,0,0,0,.616.858C197.01-7.7,197.34-7.568,197.67-7.414Zm18.106,1.1a5.9,5.9,0,0,0-.814-2.156,12.569,12.569,0,0,1-1.078-2.09,1.665,1.665,0,0,1,.572-.4,3.526,3.526,0,0,0-2.354-1.782.691.691,0,0,0-.154.462,2.179,2.179,0,0,0,.286.88,3.072,3.072,0,0,1,.308.836,6.02,6.02,0,0,1-1.54.836,9.967,9.967,0,0,0-1.518.66,2.17,2.17,0,0,0,.528.066,3.993,3.993,0,0,0,1.452-.33c.462-.2.9-.418,1.364-.616.528.77,1.056,1.518,1.584,2.288a4.529,4.529,0,0,1,.638,2.684c.066.132,0,.33-.176.616a1.75,1.75,0,0,0-.264.506c0,.11.154.176.44.154a3.161,3.161,0,0,0,.77-2.112A4.3,4.3,0,0,0,215.776-6.314ZM213,.154c.066-.33-.132-.66-.638-.946a2.6,2.6,0,0,1-1.1-.99,3.91,3.91,0,0,1-.7-1.078c-.286-.506-.528-.77-.726-.77-.154,0-.33.132-.484.4C210.3-1.232,211.53-.088,213,.154ZM232.5-11.11a.889.889,0,0,1-.594-.858c0-.088.022-.22.044-.4a2.985,2.985,0,0,0,.022-.4,1.1,1.1,0,0,0-.044-.264.931.931,0,0,1-.528.242c-.2,0-.418-.176-.682-.506a1.472,1.472,0,0,0-.682-.572,1.135,1.135,0,0,0-.242-.044c-.374,0-.572.176-.572.528a1.136,1.136,0,0,0,.044.242,1.161,1.161,0,0,1,.264.638c0,.264-.22.506-.682.726a1.8,1.8,0,0,0-.88.66,1.486,1.486,0,0,0,.308.044,2.008,2.008,0,0,0,.638-.176,1.546,1.546,0,0,1,.682-.154.951.951,0,0,1,.264.616q0,.5-.792,1.122a6.558,6.558,0,0,0-1.1,1.034.618.618,0,0,0,.506.33,1.884,1.884,0,0,0,.9-.462,2.381,2.381,0,0,1,.946-.462,20.424,20.424,0,0,1,1.3,2.068,1.757,1.757,0,0,1,.2.792,2.58,2.58,0,0,1-.4,1.254l-.66,1.188a.782.782,0,0,0,.22.044.646.646,0,0,0,.418-.242c.22-.242.352-.4.374-.418a2.4,2.4,0,0,0,.572-1.562,5.172,5.172,0,0,0-.418-1.8q-.528-1.419-.594-1.716a3.109,3.109,0,0,1,.748-.55.82.82,0,0,0,.462-.66A1.514,1.514,0,0,0,232.5-11.11ZM231.77,1.056a14.68,14.68,0,0,0-2.134-2.244,29.556,29.556,0,0,1-2.266-2.178.665.665,0,0,0-.506-.154c-.242,0-.374.088-.374.286a.429.429,0,0,0,.022.154A10.686,10.686,0,0,0,228.69-.858a27.653,27.653,0,0,1,2.354,2.024s.132,0,.4.022A.386.386,0,0,0,231.77,1.056Zm-1.452-13.75c0,.066-.044,0-.154-.154Zm.44,1.166q-.1,0,0-.33Zm.858.858a1.073,1.073,0,0,1-.572.286.642.642,0,0,1-.044-.2.515.515,0,0,1,.154-.374.416.416,0,0,1,.308-.154c.11,0,.176.088.176.242A.609.609,0,0,1,231.616-10.67ZM245.5-9.108a12.4,12.4,0,0,0-2.64-5.236.545.545,0,0,0-.462-.242c-.308,0-.44.176-.418.506a10.959,10.959,0,0,1,1.078,1.342c.33.462.638.946.968,1.408a8.918,8.918,0,0,1,.792,3.85,8.879,8.879,0,0,1-1.232,4.8,1.626,1.626,0,0,1-.132.44,1.263,1.263,0,0,0-.154.44c0,.11.066.176.22.176a1.437,1.437,0,0,0,.242-.044,8.657,8.657,0,0,0,.792-1.628l.66-1.716a9.617,9.617,0,0,0,.154-2.046A8.569,8.569,0,0,1,245.5-9.108Z" transform="translate(-3.895 15.488)" fill="#333"/>
</svg>
