<svg xmlns="http://www.w3.org/2000/svg" width="184.36" height="16.989" viewBox="0 0 184.36 16.989">
  <path id="パス_60" data-name="パス 60" d="M18.348-9.9a4.777,4.777,0,0,1-1.364-.506l-1.254-.66a16.616,16.616,0,0,1-1.958-1.65c-.616-.616-1.232-1.232-1.848-1.87a.721.721,0,0,1-.44-.132,1.263,1.263,0,0,0-.44-.154c-.154,0-.2.154-.176.44C13.4-11.418,15.8-9.768,18.062-9.46c.022-.066.11-.11.22-.176Q18.381-9.7,18.348-9.9Zm-7.48-.286a.764.764,0,0,0-.638-.286,2.734,2.734,0,0,0-.682.132,2.39,2.39,0,0,1-.7.154.429.429,0,0,0-.022.154c0,.066.11.2.308.418a.723.723,0,0,1,.528-.154,2.175,2.175,0,0,1,.33.022,1.578,1.578,0,0,0,.286.022Q10.835-9.724,10.868-10.186ZM10.3-15c-.066-.11-.2-.154-.44-.154-1.034,1.386-2.046,2.75-3.08,4.136A19.554,19.554,0,0,0,4.158-6.666c.044.066.2.11.44.11C5.236-7.612,6.16-9.02,7.414-10.78,8.844-12.8,9.79-14.212,10.3-15Zm2.464,6.27a.4.4,0,0,1-.11-.154c-.11.022-.77.176-2.024.44a8.375,8.375,0,0,0-1.936.616.484.484,0,0,0-.022.176c0,.11.154.242.462.374a2.024,2.024,0,0,1,1.276-.506,4.3,4.3,0,0,0,1.364-.33,8.136,8.136,0,0,1-.638,3.212c-.418,1.012-.858,2.024-1.276,3.058l.176.154a3.088,3.088,0,0,0,.726-.616c.088-.33.484-1.364,1.188-3.124A9.715,9.715,0,0,0,12.76-8.734Zm19.4,5.566c-.022-.286-.2-.462-.55-.528-.594-.132-.9-.2-.9-.2a2.805,2.805,0,0,1-.418.022c-1.21,0-1.8-.726-1.8-2.2,0-.22.022-.572.044-1.034s.044-.814.044-1.034a3.217,3.217,0,0,0-.22-1.342,2.29,2.29,0,0,1,.968-.352,2.273,2.273,0,0,0,.946-.374c-.11-.286-.286-.44-.484-.44a2.582,2.582,0,0,0-.77.286c-.33.154-.594.176-.77.022-.022-.22-.044-.44-.044-.66,0-.968.242-1.452.7-1.452a1.355,1.355,0,0,1,.792.352.313.313,0,0,0,.044-.132.955.955,0,0,0-.484-.726c-.7-.11-1.012-.638-.9-1.606a.492.492,0,0,0-.22-.066c-.22,0-.33.308-.33.946a1.275,1.275,0,0,0-.22.2q-.165.2-.264.2c-.044,0-.088-.044-.132-.11a2.046,2.046,0,0,1-.528,0c-.33-.022-.528-.044-.594-.044-.418,0-.682.154-.77.484a2.164,2.164,0,0,0,1.188.374,2.683,2.683,0,0,0,.7-.088,1.944,1.944,0,0,1,.33,1.254v1.364a8.362,8.362,0,0,1-2.156.99,8.862,8.862,0,0,0-2.09.924c0,.242.044.4.11.44a10.386,10.386,0,0,1,2.046-.814c.682-.22,1.386-.44,2.09-.638a9.946,9.946,0,0,1,.352,2.068q.165,1.98.2,2.178a1.064,1.064,0,0,1-.748.374,3.923,3.923,0,0,0-.858.176,7.39,7.39,0,0,1-.924.7,1.205,1.205,0,0,0-.572.924,1.514,1.514,0,0,0,.044.286c.088.242.374.484.88.726a5.053,5.053,0,0,0,1.628.352A1.867,1.867,0,0,0,28.974-2a1.3,1.3,0,0,0,.044-.308,2.123,2.123,0,0,0-.088-.528,2.032,2.032,0,0,1-.088-.484.448.448,0,0,1,.242-.418A13.775,13.775,0,0,0,32.164-3.168Zm-4.092.286c.066.55-.066.858-.44.88-1.122-.2-1.76-.528-1.892-1.012a4.571,4.571,0,0,1,1.936-.9c.308,0,.462.176.462.55A2.273,2.273,0,0,1,28.072-2.882Zm25.256-9.306a.585.585,0,0,0,.132-.352,1.154,1.154,0,0,0-.2-.506,1.663,1.663,0,0,1-.22-.484c-.154-.286-.33-.572-.484-.858-.22-.374-.44-.572-.66-.572a.648.648,0,0,0-.462.22,1.059,1.059,0,0,0,.33.924,5.478,5.478,0,0,1,.638.858q.165.231.4.528A.519.519,0,0,0,53.328-12.188Zm-2.706.528c0-.836-.11-1.342-.33-1.54a1.2,1.2,0,0,0-.836-.506.6.6,0,0,0-.418.176.533.533,0,0,0-.088.286c0,.154.132.33.374.528a1.918,1.918,0,0,1,.528.572c.022.088.044.176.066.286a.261.261,0,0,0,.176.22C50.336-11.506,50.512-11.506,50.622-11.66Zm-2.4,9.328c.11-.088.088-.22-.066-.374-.77-.154-1.562-.33-2.332-.506a2.624,2.624,0,0,1-1.716-1.5,4.785,4.785,0,0,1-.022-.55,9.361,9.361,0,0,1,1.166-3.85,13.1,13.1,0,0,0,1.364-3.85c-.022-.242-.22-.374-.572-.374a20.067,20.067,0,0,0-2.42.792c-1.408.572-2.2.88-2.376.946a1.239,1.239,0,0,1-.726.088c-.33,0-.506.11-.506.352a1.364,1.364,0,0,0,.572.286,9.579,9.579,0,0,0,2.6-.77,15.206,15.206,0,0,1,2.552-.924.358.358,0,0,0,.066.132,18.751,18.751,0,0,1-1.43,3.542,8.942,8.942,0,0,0-1.056,3.63,5.477,5.477,0,0,0,.176,1.342c.418.88,1.408,1.43,2.992,1.672a1.135,1.135,0,0,1,.242-.044,3.336,3.336,0,0,1,.528.066,1.732,1.732,0,0,0,.484.088A.647.647,0,0,0,48.224-2.332ZM63.36-8.888a.883.883,0,0,1-.33.066A1.6,1.6,0,0,1,62-9.438a3.788,3.788,0,0,0-1.1-.858c-.242,0-.374.154-.374.44a.168.168,0,0,0,.044.11,3.913,3.913,0,0,0,2.112,1.54c.506-.22.748-.4.748-.506A.293.293,0,0,0,63.36-8.888ZM66.4-12.76a.568.568,0,0,0-.55-.352.466.466,0,0,0-.4.22,17.811,17.811,0,0,1-1.87,5.83c-.946,1.8-1.914,3.608-2.882,5.412v.484A33.808,33.808,0,0,0,66.4-12.76ZM69.916-.836c-.858-.968-1.694-1.936-2.552-2.882a5.834,5.834,0,0,0-3.19-1.892l-.132.308a14.277,14.277,0,0,1,2.706,2.244,23.8,23.8,0,0,0,2.6,2.332s.088,0,.286.022A.327.327,0,0,0,69.916-.836ZM60.082-7.282l-2.9,2.112h-.616a4.708,4.708,0,0,0,.374-1.958c0-.374-.044-.924-.11-1.65q-.132-1.155-.132-1.65c-.022,0-.066-.088-.132-.242a.276.276,0,0,0-.22-.154.167.167,0,0,0-.088.044c-.022,0,0,1.078.022,3.256a10.109,10.109,0,0,1-.4,3.168c0,.11-.088.242-.286.4s-.308.286-.308.352c0,.088.066.176.22.286.176-.088.682-.44,1.518-1.034A8.665,8.665,0,0,1,58.586-5.3c.022-.022.352-.308.968-.814.374-.33.572-.616.572-.88A1.514,1.514,0,0,0,60.082-7.282ZM85.756-5.038A.313.313,0,0,0,85.8-5.17c0-.066-.066-.132-.176-.22a.565.565,0,0,1-.2-.22,11.131,11.131,0,0,0-2.4-.22c-.55,0-1.342.044-2.4.11-1.078.066-1.848.11-2.354.11.066-.462.11-1.254.154-2.332a15.44,15.44,0,0,1,.2-2.354l2-.44c.33-.11.66-.242.99-.352.418-.154.638-.4.66-.7a3.006,3.006,0,0,0-.418-.044,4.273,4.273,0,0,0-1.54.44,4,4,0,0,1-1.518.462,3.006,3.006,0,0,1-.418-.044,1.75,1.75,0,0,0,0-.484c-.022-.286-.044-.462-.044-.528,0-.4.22-.616.66-.638a3.608,3.608,0,0,1-.352-.418.642.642,0,0,0-.462-.308.429.429,0,0,0-.154.022,9.9,9.9,0,0,0-.308,3.63,17.815,17.815,0,0,1-.022,3.74A2.522,2.522,0,0,1,76.032-4.95a7.636,7.636,0,0,0-1.848.528s-.22.088-.66.286a.534.534,0,0,0-.374.506,1.419,1.419,0,0,0,.44.066,3.649,3.649,0,0,0,1.166-.308,3.649,3.649,0,0,1,1.166-.308,19.287,19.287,0,0,1,6.38-.946c.814,0,1.738.022,2.772.088a.544.544,0,0,0,.33.154A.65.65,0,0,0,85.756-5.038Zm14.256-6.732a.771.771,0,0,0-.616-.748c-.638-.2-.968-.286-.99-.308a.881.881,0,0,1-.308.2.31.31,0,0,0-.176.264.68.68,0,0,0,.044.176c.022.066.11.11.264.11a2.988,2.988,0,0,1,.33-.022c.418.11.616.352.616.682a1.936,1.936,0,0,1-.022.308,3.284,3.284,0,0,0-.044.374.912.912,0,0,0,.176.55c.4.022.594-.132.594-.506a1.578,1.578,0,0,0-.022-.286v-.286A.665.665,0,0,1,100.012-11.77Zm1.3,7.436a1.849,1.849,0,0,0-1.254-.726,2.385,2.385,0,0,1-1.364-.726c-.066-.044-.11-.176-.176-.4-.066-.154-.132-.242-.242-.242a.43.43,0,0,0-.154.022.825.825,0,0,0-.33.726,3.251,3.251,0,0,0,2.882,1.386A5.812,5.812,0,0,0,101.31-4.334Zm-10.516-10.1h-.286A37.647,37.647,0,0,0,89.32-6.2a13.4,13.4,0,0,0,.88,5.1c.022.022.132-.044.308-.154a30.6,30.6,0,0,1-.462-5.412A44.343,44.343,0,0,1,90.794-14.432Zm27.632.022q-.033-.363-.33-.2-.363.165-.528-.066a1.926,1.926,0,0,0,.286-.572c-.066.022-.154-.044-.286-.154a4.394,4.394,0,0,0-1.32,2.178.452.452,0,0,0,.308.176c.11,0,.242-.11.418-.308s.33-.308.44-.308a1.636,1.636,0,0,1-.22.792,1.974,1.974,0,0,0-.286.814.609.609,0,0,0,.066.286A3.734,3.734,0,0,0,118.426-14.41Zm1.5,3.982-2.64.594a42.353,42.353,0,0,1-2.046-4.84c-.022-.088-.11-.462-.22-1.122a2.913,2.913,0,0,0-.4-1.078c-.7.154-1.408.286-2.134.418a12.663,12.663,0,0,0-2.112.594,3.334,3.334,0,0,1-1.078.572,1.148,1.148,0,0,0-.814.77,25.113,25.113,0,0,1,5.566-1.782l.286.33a7.514,7.514,0,0,0,.682,2.816,17.563,17.563,0,0,1,.946,2.728c.11.286.242.572.374.858.176.374.4.55.682.55a1,1,0,0,0,.4-.088c.506-.132,1.012-.264,1.518-.418C119.526-9.7,119.856-10.01,119.922-10.428ZM118.866-8.69l-.11-.132a2.584,2.584,0,0,0-.836.946,10.428,10.428,0,0,1-.638,1.078h.572A4.562,4.562,0,0,0,118.866-8.69Zm-1.892.308a.49.49,0,0,0-.418-.154c-.2,0-.308.088-.308.286a1.312,1.312,0,0,0-.176.616.525.525,0,0,0,.33.55,1.132,1.132,0,0,0,.352-.594C116.886-8.118,116.952-8.36,116.974-8.382Zm2.948,5.412v-.44c-.176-.11-.286-.176-.33-.154a11.77,11.77,0,0,1-3.674-3.058,9.925,9.925,0,0,1-2.134-4.092q-.165-.462-.462-.462a1.471,1.471,0,0,0-.66.286,1.471,1.471,0,0,1-.66.286,2.588,2.588,0,0,1-.154-.946,10,10,0,0,1,.11-1.1,8.5,8.5,0,0,0,.088-1.122A5.811,5.811,0,0,0,112-14.41a1.051,1.051,0,0,0-.44-.176,1.114,1.114,0,0,0-.418.176.43.43,0,0,0-.022.154c0,.11.11.264.308.462-.088,1.012-.176,2.024-.264,3.014a2.178,2.178,0,0,1-1.914,1.958.484.484,0,0,1-.286-.4c-.022-.154-.022-.33-.044-.484a.827.827,0,0,0-.616-.638,2.769,2.769,0,0,1-.836-.374,5.433,5.433,0,0,0,.2-.968,4.1,4.1,0,0,1,.242-.946,4.461,4.461,0,0,0-.968,1.782c-.22.682-.44,1.342-.638,2.024.176-.022.374-.22.616-.572a1.414,1.414,0,0,1,.7-.594l.572.44a2.19,2.19,0,0,1,.176.836,4.231,4.231,0,0,1-.264,1.276,8.487,8.487,0,0,0-.352,1.21,2.691,2.691,0,0,1-.4.946,2.188,2.188,0,0,0-.352.946.609.609,0,0,0,.022.2,3.373,3.373,0,0,0,1.254-1.826,19.945,19.945,0,0,1,.77-2.09,2.46,2.46,0,0,1,1.936-1.21c-.022-.22-.022.55-.022,2.31a13.442,13.442,0,0,0,.176,2.376,1.053,1.053,0,0,1-.044.506,1.937,1.937,0,0,0-.11.418.515.515,0,0,0,.154.374,14.88,14.88,0,0,0-.176,1.826A3.588,3.588,0,0,0,111.276.11a.235.235,0,0,0,.242-.11c.132-.154.2-.22.2-.22V-8.536c.022-1.166.484-1.8,1.342-1.892.022.11.176.44.418.99a3.037,3.037,0,0,1,.308,1.056l2.574,3.432A4.671,4.671,0,0,0,119.922-2.97Zm17.292-9.812a7.581,7.581,0,0,1-.418-.638.658.658,0,0,0-.638-.374c-.242.11-.352.242-.352.4a1.224,1.224,0,0,0,.44.7c.418.418.638.616.638.638a.547.547,0,0,0,.176.022c.11,0,.176-.088.154-.286A1.421,1.421,0,0,1,137.214-12.782Zm-1.452,1.32a2.717,2.717,0,0,1-.77-.638.906.906,0,0,0-.858-.374c-.2.066-.286.154-.286.264a.857.857,0,0,0,.2.374,1.507,1.507,0,0,1,.22.374,4.962,4.962,0,0,1,.506.22,1.662,1.662,0,0,0,.55.176C135.52-11.066,135.674-11.2,135.762-11.462ZM134.6-4.29a.436.436,0,0,0-.418-.154c-.33.022-.484.022-.484.022-.506-.4-.792-.616-.858-.682a1.331,1.331,0,0,1-.462-.924,2.167,2.167,0,0,1-.286-.308.452.452,0,0,0-.308-.176c-.286,0-.44.176-.44.528,0,.528,0,.748.022.682l-1.716,1.716a10.036,10.036,0,0,1-1.8,1.474.539.539,0,0,1-.352.176.676.676,0,0,1-.484-.286,3.876,3.876,0,0,0-.462-.462,5.467,5.467,0,0,1-.33-1.914,10.191,10.191,0,0,1,.528-2.882c.506-1.716.77-2.64.814-2.794.088-.462.176-.9.264-1.342a2.2,2.2,0,0,1,.748-1.166v-.462a4.261,4.261,0,0,0-1.43.22,5.236,5.236,0,0,1-1.386.286,2.19,2.19,0,0,1-.836-.176c-.11.022-.154.11-.154.242q.033.3,0,.33a1.134,1.134,0,0,0,.792.286,3.513,3.513,0,0,0,.858-.154,4.074,4.074,0,0,1,.858-.132,16.386,16.386,0,0,1-.858,3.806,15.1,15.1,0,0,0-.77,3.916,5.624,5.624,0,0,0,.9,3.1,3.6,3.6,0,0,0,.484.044A4.078,4.078,0,0,0,129.6-2.706c.726-.726,1.474-1.43,2.2-2.156A2.909,2.909,0,0,0,134.134-3.7c.022-.022.132-.088.308-.2a.308.308,0,0,0,.176-.242A.326.326,0,0,0,134.6-4.29Zm17.116,1.54-.44-10.67a.664.664,0,0,1-.11-.44.627.627,0,0,0-.176-.44,3.537,3.537,0,0,0-1.386-.264,11.647,11.647,0,0,0-3.41.88c-.286,0-.418.132-.418.4a.349.349,0,0,0,.242.33,6.83,6.83,0,0,1,3.168-.9,4.927,4.927,0,0,1,1.254.176c.088.88.154,2.178.22,3.872.066,1.848.154,3.19.22,4,.022.066,0,.11-.066.176s-.088.11-.088.132c0,.044.044.088.154.132a1.066,1.066,0,0,0,0,.4.347.347,0,0,1-.154.33,3.135,3.135,0,0,0-1.584-.4,10.022,10.022,0,0,0-1.782.242,12.392,12.392,0,0,1-1.782.308,2.336,2.336,0,0,1-1.1.352q-.726.1-.792.66a7.1,7.1,0,0,0,2.42-.352c1.518-.418,2.332-.638,2.42-.66a3.97,3.97,0,0,1,.594.066,2.155,2.155,0,0,0,.506.088.609.609,0,0,0,.2-.022.6.6,0,0,0,.418.176.486.486,0,0,0,.484-.308c.066.066.132.11.2.176a.248.248,0,0,1,.066.242s.044.286.154.858A.461.461,0,0,0,151.712-2.75Zm-2.618-4.224a.826.826,0,0,0,.022-.22q0-.363-.462-.528-.66-.231-.726-.264c.022-.066.11-.286.286-.66a1.555,1.555,0,0,0,.2-.682,1.115,1.115,0,0,0-.044-.286,1.125,1.125,0,0,0-1.166-.44c-.2.308-.374.462-.506.462-.11,0-.242-.22-.352-.638a1.67,1.67,0,0,0-.33-.7.731.731,0,0,0-.44.66,2.581,2.581,0,0,0,.308.924,3.272,3.272,0,0,1,.308.9.56.56,0,0,0,.154.044c.154,0,.242-.11.264-.352a.706.706,0,0,1,.132-.418,2.372,2.372,0,0,0,.748-.154,1.7,1.7,0,0,1,.044.33,1.8,1.8,0,0,1-.418,1.012,8.68,8.68,0,0,0-.638,1.012,5.442,5.442,0,0,0,.792-.088,8.9,8.9,0,0,1,.946-.066A2.1,2.1,0,0,1,149.094-6.974Zm-6.138-5.544c-.066-.2-.154-.418-.22-.638a.413.413,0,0,0-.506-.264v3.938a16.765,16.765,0,0,1-.4,3.036,15.293,15.293,0,0,0-.418,2.948,5.175,5.175,0,0,0,.088,1.034q.825-2.937,1.056-4.026a20.5,20.5,0,0,0,.484-4.29A15.073,15.073,0,0,0,142.956-12.518Zm23.672,6.094a1.218,1.218,0,0,0-.638-1.166,8.116,8.116,0,0,0-1.408-.286,2.762,2.762,0,0,1-1.32-.44l1.32-1.716a4.077,4.077,0,0,0,.88-1.914,3.429,3.429,0,0,0-1.43-.44c-.506-.066-.99-.11-1.5-.176q-.066.561.726.792a9.547,9.547,0,0,1,1.3.374,10.456,10.456,0,0,1-2.178,3.234V-7.7a7.566,7.566,0,0,0,1.738.33,2.239,2.239,0,0,1,1.606.682,1.321,1.321,0,0,1,.33.924,4.375,4.375,0,0,1-.154.968,5.084,5.084,0,0,0-.176,1.012c-.154.484-.374.726-.7.726a2.722,2.722,0,0,1-.836-.264,2.853,2.853,0,0,0-1.012-.264,1.022,1.022,0,0,0-.506.132,2.111,2.111,0,0,0-1.188,1.892c.374.154.726.308,1.1.462a2.884,2.884,0,0,0,1.122.308,1.523,1.523,0,0,0,.748-.2,4.024,4.024,0,0,0,1.826-2.354A10.272,10.272,0,0,0,166.628-6.424Zm-1.914,4.136a.82.82,0,0,1-.418.506c-.374.22-.55.33-.572.33a2.186,2.186,0,0,0-.726-.22,1.145,1.145,0,0,1-.77-.33c0-.506.286-.77.88-.77a1.594,1.594,0,0,1,.726.154.564.564,0,0,0,.462.176C164.516-2.42,164.648-2.376,164.714-2.288Zm23.8.264v-.352c-2.046-.44-4.114-1.848-6.2-4.2-.066-.11-.242-.462-.528-1.078-.2-.462-.44-.726-.748-.792a1.115,1.115,0,0,0-.044.286,2.746,2.746,0,0,0,.176.792,4.559,4.559,0,0,1,.22.792Q184.921-1.925,188.518-2.024ZM180.092-16.17l-.11-.11a1.38,1.38,0,0,0-.484,1.232,2.872,2.872,0,0,0,.022.374v.374a1.575,1.575,0,0,1-.352,1.166,17.685,17.685,0,0,1-1.386,4.2c-.374.858-1.056,2.178-2,3.938C174.856-3.3,174.2-2,173.8-1.078v.352l.308-.11c.99-1.826,2-3.63,2.992-5.456a37.012,37.012,0,0,0,2.508-5.676,2.95,2.95,0,0,0,.528-1.936c0-.2,0-.506-.022-.9-.022-.374-.044-.66-.044-.814A4.243,4.243,0,0,1,180.092-16.17Z" transform="translate(-4.158 16.874)" fill="#333"/>
</svg>
