<svg xmlns="http://www.w3.org/2000/svg" width="227.9" height="41.5" viewBox="0 0 227.9 41.5">
  <path id="パス_62" data-name="パス 62" d="M39.95-23.65c-2.3-.8-5.4-2.85-9.25-6.15-3.7-3.15-6.8-5.1-9.3-5.8-.3.3-.4.5-.35.65,2.7,2.2,5.4,4.4,8.15,6.55A38.554,38.554,0,0,0,37.95-23a2.807,2.807,0,0,0,1.55.45C40.15-22.55,40.3-22.9,39.95-23.65Zm-20.3-13.3A65.769,65.769,0,0,0,13.6-27.9L8.35-18.3a36.721,36.721,0,0,0,5.8-7.85c1.65-2.8,3.25-5.6,4.85-8.4.05-.15.2-.45.45-.95a1.9,1.9,0,0,0,.3-.9A1.8,1.8,0,0,0,19.65-36.95ZM37.3-7v-.65a19.722,19.722,0,0,0-3.85-.4A37.543,37.543,0,0,0,28-7.5c-2.7.45-4.6.75-5.7.85a2.961,2.961,0,0,0-.2-.3A5.838,5.838,0,0,1,22-8.1a1.273,1.273,0,0,1,.3-.95,3.013,3.013,0,0,1-.4-1.45,4.491,4.491,0,0,1,.95-2.4,10.145,10.145,0,0,0,1.2-2.45.826.826,0,0,0-.8-.35c-.65.05-.95.05-.95.05a2.1,2.1,0,0,1-.7-1.45,4.606,4.606,0,0,1,.9-2.05,3.834,3.834,0,0,0,.85-2.2,4.617,4.617,0,0,0-1.65-1.6,4.38,4.38,0,0,0-2.25-.7,2.247,2.247,0,0,0-2.1,1.3,1.5,1.5,0,0,0,1.3.7,4.855,4.855,0,0,1,2,.3c.65.25,1,.6,1,.95,0,.2-.2.55-.65,1.1a2.453,2.453,0,0,0-.7,1.25,1.177,1.177,0,0,0,.1.4A4.55,4.55,0,0,1,16.1-15a3.564,3.564,0,0,0-.45,1.3c0,.35.35.4,1.1.15A11.028,11.028,0,0,1,19-14.1a1.5,1.5,0,0,1,1.4.75A4,4,0,0,0,20-11.7a6.027,6.027,0,0,0,.6,2.05A6.569,6.569,0,0,1,21.05-7a6.175,6.175,0,0,1-2.3.8q-2.175.375-2.4.45c-.15-.95-.35-1.4-.65-1.4-.2,0-.65.4-1.35,1.15a2.89,2.89,0,0,1-1.8,1.15.965.965,0,0,1-.5-.15,2,2,0,0,1-.3.8,1.594,1.594,0,0,0-.35.85c0,.25.2.5.65.65C18.2-5.05,26.65-6.45,37.3-7ZM63.8-28.4a1.768,1.768,0,0,0-.75-1.2,2.106,2.106,0,0,0-1.25-.55c-.55,0-.85.35-1,1a5.548,5.548,0,0,1,1.3,1.45q.675,1.125,1.05,1.2a.928.928,0,0,0,.6-.8A8.1,8.1,0,0,0,63.8-28.4Zm15,9.9a8.736,8.736,0,0,0-3.5-.65,31.83,31.83,0,0,0-3.6.3,24.82,24.82,0,0,1-3.55.35,13.083,13.083,0,0,1-1.05-6.15q.075-5.925,0-6.45a6.4,6.4,0,0,1,.1-1.95c.15-.75.4-1.15.8-1.15.35,0,.7.25,1.15.75q1.8-1.275,1.8-1.65a.78.78,0,0,0-.55-.65c.2-.05-.3-.05-1.55-.05a2.069,2.069,0,0,0-1.35.4,1.149,1.149,0,0,1-.6-.9c-.05-.35-.1-.75-.15-1.1-.25-1.15-.55-1.7-1-1.7q-.45,0-.75.6a2.477,2.477,0,0,0-.35,1.35,2.139,2.139,0,0,0,.45,1.4c-.25.85-1.05,1.35-2.35,1.5-2.05.3-3.1.45-3.25.5a1.088,1.088,0,0,1-.65-1.05c-.05-.55-.2-.85-.35-.95-.4-.15-.85.1-1.4.65a2.277,2.277,0,0,1,.6,1.3c0,.55-.5,1.05-1.55,1.5a4.86,4.86,0,0,0-2,1.2,7.306,7.306,0,0,0,2.95-.35A27,27,0,0,1,57.45-25c-.1,3.25-.1,5.4,0,6.5.6,0,.95-.1,1.05-.35a19.47,19.47,0,0,0,.65-5.65v-2.7a17.985,17.985,0,0,1,.6-5.25c.7-.2,1.4-.4,2.15-.65a7.588,7.588,0,0,1,2.1-.35,2.713,2.713,0,0,1,1.45.35c.05.95.05,2.25,0,3.85-.05,2.15-.05,3.5-.05,3.95a27.828,27.828,0,0,0,.7,6.8,72.46,72.46,0,0,1-8.45,1.8,23.1,23.1,0,0,0-8.15,2.5c-.05.15.05.4.35.65a60.524,60.524,0,0,1,12.05-2.5c4.2-.45,8.4-.95,12.55-1.45a7.231,7.231,0,0,1,.4.7.705.705,0,0,0,.6.4,1.966,1.966,0,0,0,.3-.1c.6-.25,1.2-.45,1.75-.7A1.885,1.885,0,0,0,78.8-18.5ZM63.15-23.45A2.816,2.816,0,0,0,60.8-25.1c-.45.25-.7.55-.7.85,0,.25.25.55.7,1s.65.85.6,1.1l-.6,1.35a3.885,3.885,0,0,0-.45,1.4c0,.45.25.6.8.55A8.368,8.368,0,0,0,63.15-23.45ZM74.75-11.9a4.6,4.6,0,0,0-2.9-1.15,9.764,9.764,0,0,1-3.1-.75,1.177,1.177,0,0,0-.4-.1,1.366,1.366,0,0,0-.95.4,1.154,1.154,0,0,0-.3.95,3.564,3.564,0,0,0,1.9.9c1.35.35,2.05.5,2.05.5a1.008,1.008,0,0,1,.55-.15,3.936,3.936,0,0,1,1.1.2,4.018,4.018,0,0,0,1,.25Q74.525-10.85,74.75-11.9Zm0,9.4a11.848,11.848,0,0,0-4.55-.75,38.406,38.406,0,0,0-4.75.35,1.272,1.272,0,0,1-.35.1c-.45,0-.65-.6-.65-1.75a2.642,2.642,0,0,1-.05-.65c0-1.95.8-3.05,2.35-3.3-.05-.45-.45-.7-1.2-.8a3.49,3.49,0,0,1-1.75-.55A8.845,8.845,0,0,1,62.75-8.4a2.548,2.548,0,0,0-.7,1.45,1.177,1.177,0,0,0,.1.4q.975.075,1.05,1.2c-.05.6-.05,1.2-.05,1.85Q62.925-2.225,61.2-2c-1.25.15-2.05.55-2.35,1.15,0,.55.1.85.3,1A28.529,28.529,0,0,1,69.1-1.9a16.2,16.2,0,0,1,3.6.4,13.1,13.1,0,0,0,1.4-.05c.45-.05.7-.25.7-.6A.976.976,0,0,0,74.75-2.5ZM60.15-12.55v-.6a8.66,8.66,0,0,0-3.85,2.9,26.513,26.513,0,0,1-3.5,3.7v.75Q58.35-10,60.15-12.55Zm55.5-14.4c-.05,0-2.2.15-6.55.45a18.535,18.535,0,0,0-6.15,1.2,2.463,2.463,0,0,1-.25-.9q0-.825,1.5-1.8a5.935,5.935,0,0,0,1.8-1.6,1.226,1.226,0,0,0,.3-.8c0-.85-.45-1.25-1.35-1.25a10.557,10.557,0,0,1,3.35-3.3l2.1-.45q1.275-.225,1.2-1.2a6.776,6.776,0,0,0-1-.1,13.78,13.78,0,0,0-3,.55,10.583,10.583,0,0,1-3.25.55q-.225-.75.9-2.1a3.872,3.872,0,0,0,1.1-2.2c-.15-.25-.45-.35-1-.35-2.5,4.55-5.85,6.9-10,6.95-.65.1-.95.45-.95,1,0,.3.2.5.65.65.9-.35,1.8-.65,2.7-1a10.251,10.251,0,0,1,2.9-.65.706.706,0,0,1,.35.75v.9a1.776,1.776,0,0,1,.1.5c0,.55-.35.9-1.1,1.15a17.355,17.355,0,0,0-1.65.65c-.05.7.2,1.05.65,1.05a2.912,2.912,0,0,0,.7-.15c.35-.05.6-.1.75-.1a.854.854,0,0,1,.85.6,6.393,6.393,0,0,1-3.55,3.5c-1.55.7-3.15,1.4-4.7,2.1v.75a13.727,13.727,0,0,0,3.75-.7c1.3-.45,2.6-.9,3.85-1.35l.65.65a19.5,19.5,0,0,1,9.5-2.3,18.189,18.189,0,0,1,3.8.35A2.515,2.515,0,0,0,115.65-26.95Zm-17-11-.3-.3c-.35.35-1.05.4-2.2.1-.9-.25-1.4.05-1.45.9.1.05.35.15.7.35a1.586,1.586,0,0,0,.9.35,1.1,1.1,0,0,0,.4-.05s.4-.15,1.15-.5A1.144,1.144,0,0,0,98.65-37.95Zm18.25,21.3a50.3,50.3,0,0,0-6.45-.05,27.083,27.083,0,0,1-6.5-.35c.7-.85,1.4-1.75,2.1-2.6a5.757,5.757,0,0,0,1.2-3,.8.8,0,0,0-.5-.25,1.251,1.251,0,0,0-.55.25,3.287,3.287,0,0,1-.6.3,9,9,0,0,1-1.35,3.15c-.65.95-1.3,1.95-1.95,2.9A23.354,23.354,0,0,0,95.85-15c-2.05.65-4.1,1.35-6.15,2a3.729,3.729,0,0,1-.6.35c-.3.2-.45.35-.45.5s.1.3.35.45a66.646,66.646,0,0,1,25-3.95.723.723,0,0,1,.35-.1c.15,0,.35.15.6.4.25.3.45.45.65.45a.432.432,0,0,0,.3-.15c.05-.05.25-.25.6-.55.35-.25.5-.5.5-.7A.723.723,0,0,0,116.9-16.65ZM100-19.3a.741.741,0,0,1-.35.05,2.758,2.758,0,0,1-1.25-.55,2.9,2.9,0,0,0-1.1-.5q-.525,0-.6,1.35a8.633,8.633,0,0,1,1.05.4,2.806,2.806,0,0,0,1.15.3,1.384,1.384,0,0,0,.45-.05c.05-.05.2-.25.45-.5A.551.551,0,0,0,100-19.3Zm9.3,8.25a4.212,4.212,0,0,0-1.75-.35,9.093,9.093,0,0,0-2.8.6,13.934,13.934,0,0,1-2.8.75,1.473,1.473,0,0,1-.8-.5,1.635,1.635,0,0,0-.8-.45c-.25,0-.5.25-.7.7.45,3.5.8,6.05,1,7.6,3.9,0,6.55-.45,8-1.35a5.025,5.025,0,0,1-.35-2.05A16.9,16.9,0,0,1,109.3-11.05ZM104.35-33.3a8.3,8.3,0,0,0-.7.65,1.042,1.042,0,0,0-.35.75c-.25-.05-.35-.3-.35-.75a2.792,2.792,0,0,0,0-1,.711.711,0,0,0,.3.1,2.7,2.7,0,0,0,.8-.25c.25-.15.35-.1.35.05A1.722,1.722,0,0,1,104.35-33.3Zm2,28.3a13.076,13.076,0,0,1-4.4.65,15.163,15.163,0,0,1,.2-3.4A2.083,2.083,0,0,1,104.6-9.3a4.391,4.391,0,0,1,1.8-.7c.45,0,.65.25.65.8a8.548,8.548,0,0,1-.35,1.9,9.777,9.777,0,0,0-.4,1.9A.975.975,0,0,0,106.35-5Zm36.4-11.85.65-.65a15.988,15.988,0,0,1-1.45-1.85c-.65-.85-1.2-1.25-1.65-1.25a1.567,1.567,0,0,0-1.2.8,2.588,2.588,0,0,0,1.4,1.95C141.25-17.5,142-17.2,142.75-16.85Zm46.4-20.5a5.258,5.258,0,0,0-3.6-1.1,6.458,6.458,0,0,0-4.4,1.4.976.976,0,0,0-.05.35q0,.3.9,1.2a.712.712,0,0,0,.85-.4,3.189,3.189,0,0,1,.7-.9h2a1.941,1.941,0,0,1,1.75.6,2.425,2.425,0,0,0-.25,1.3,1.443,1.443,0,0,1-.55,1.35,2.107,2.107,0,0,0-1.45-.8,12.417,12.417,0,0,0-1.8-.05c-1,.4-2,.8-3,1.15a3.8,3.8,0,0,0-2.2,2.1c.25.35.45.55.7.55.2,0,.55-.25,1-.75.45-.45.8-.7,1.15-.65,2.35-.55,3.55-.85,3.65-.85a2.4,2.4,0,0,1,1.65.6,4.477,4.477,0,0,1-.5,1.9,17.576,17.576,0,0,0-.8,1.85,3.156,3.156,0,0,0-2.35-.2,2.629,2.629,0,0,1-2.15-.1,4.287,4.287,0,0,1-1.35.25c-1.25,0-2.6-1.05-3.95-3.1q-2.1-3.075-3.75-3a14.739,14.739,0,0,0,2.85,5.1,7.077,7.077,0,0,0,5.1,2.6,2.628,2.628,0,0,0,.3,1.55.711.711,0,0,0,.3.1.869.869,0,0,0,.55-.3c.25-.35.4-.5.45-.5a3.3,3.3,0,0,1,2.6-1.1,4.338,4.338,0,0,1,1.4.25,11.516,11.516,0,0,0,2.95-4.75C188.2-32.75,188.6-34.65,189.15-37.35ZM192.8-19.5c.1-.2-.05-.55-.45-1.1a18.105,18.105,0,0,0-4.8.65,17.859,17.859,0,0,1-4.45.7l-.55-5.6H182a11.727,11.727,0,0,0-.85,3.85,7.535,7.535,0,0,0,.3,2.05,16.73,16.73,0,0,1-4.75,1.75,32.507,32.507,0,0,0-4.8,1.35,2.026,2.026,0,0,0-1.6,1.4,19.107,19.107,0,0,0,5.25-1.05,27.146,27.146,0,0,1,5.35-1.35c.45,7.85.7,13.9.8,18.1h.85c.25-7.95.3-13.95.25-18.1a10.319,10.319,0,0,1,2.55-1.05c1.65-.45,2.55-.75,2.7-.8a6.137,6.137,0,0,1,2.5-.25A3.126,3.126,0,0,0,192.8-19.5Zm43.45,8c0-.05-.1-.95-.35-2.7a2.974,2.974,0,0,0-1-2.1,7.461,7.461,0,0,0-.1,1.05,15.917,15.917,0,0,0,.15,1.8c.05.85.1,1.45.1,1.85a4.818,4.818,0,0,1-1.15,3.3c-3.6,1.25-6.05,1.9-7.35,1.9a5.393,5.393,0,0,1-4.35-1.9c-.05-.65-.1-1.35-.1-2.1a38.336,38.336,0,0,1,.45-5.2c.4-2.9.6-4.55.65-4.9.05-.05.7-.4,1.9-1.15a2.931,2.931,0,0,1,2.15-.5c.75-.3,1.1-.7,1.1-1.2a1.177,1.177,0,0,0-.1-.4,2.225,2.225,0,0,1-.5-1.45,4.467,4.467,0,0,1,.5-1.85,18.892,18.892,0,0,0,.85-1.75,6.6,6.6,0,0,0,.25-1.55c0-1-.4-1.5-1.25-1.5a7.924,7.924,0,0,0-3.7,1.6,13.6,13.6,0,0,0-3,2.55l.55.75a1.546,1.546,0,0,0,.4.1c.25,0,.4-.25.55-.75s.35-.8.6-.9a7.962,7.962,0,0,1,3.45-1.45,2.434,2.434,0,0,1,.6.05,13.172,13.172,0,0,1-1.1,3.2,4.459,4.459,0,0,1,.15,1.1c0,1.1-.7,2-2.15,2.75a12.3,12.3,0,0,0-3.35,2.05,9.53,9.53,0,0,1,.2,2.15,31.3,31.3,0,0,1-.35,4,32.64,32.64,0,0,0-.35,4.05,8.431,8.431,0,0,0,1.05,4.4,13.025,13.025,0,0,0,5.3,1.05,12.278,12.278,0,0,0,8.2-2.7C235.9-8.35,236.25-9.55,236.25-11.5Zm-23.6-14.35a1.5,1.5,0,0,0-1.15-.55,5.2,5.2,0,0,0-1.05.15,3.98,3.98,0,0,1-1.05.2,1.541,1.541,0,0,1-.5-.05c.05-.2.15-.7.35-1.5a7.4,7.4,0,0,0,.25-1.6,3.3,3.3,0,0,0-.05-.7c-.2-1.05-.95-1.6-2.25-1.6a1.377,1.377,0,0,0-1.55,1.15h1.15a2.7,2.7,0,0,1,1.05,2.1,5.783,5.783,0,0,1-.75,2.45c-.7,1.4-1.1,2.2-1.15,2.35a1.33,1.33,0,0,0,.8.3,3.63,3.63,0,0,0,1.65-.75,3.312,3.312,0,0,1,1.6-.75,1.46,1.46,0,0,1,.45.1,9.383,9.383,0,0,1-2.45,3.3,9.611,9.611,0,0,0-2.5,3.4.705.705,0,0,0,.6.4,1.637,1.637,0,0,0,.8-.35,1.922,1.922,0,0,1,.85-.3.676.676,0,0,1,.6.45v13c.15.15.35.3.5.45a.516.516,0,0,0,.6.1c-.05-.15,0-.25.15-.4l.4-.4-.3-13.8c.05-.1.1-.3.25-.65a2.257,2.257,0,0,0,.15-.65c0-.35-.2-.6-.65-.8a23.79,23.79,0,0,1,2-2.4A4.186,4.186,0,0,0,212.65-25.85Zm3.7,15.9v-.75a3.978,3.978,0,0,1-.65-1.75,2.573,2.573,0,0,0-.95-1.75,1.187,1.187,0,0,0-1,.4,1.142,1.142,0,0,0-.35,1,6.953,6.953,0,0,1,.8,1.85c.25.85.65,1.25,1.2,1.25A2.684,2.684,0,0,0,216.35-9.95Zm-8.75,2.4a2.923,2.923,0,0,1-2-.65,2.042,2.042,0,0,1-.95-1.75,2.3,2.3,0,0,1-.9-.3,3.786,3.786,0,0,0-.95-.25,1.038,1.038,0,0,0-.8.55,1.177,1.177,0,0,0-.1.4,1.3,1.3,0,0,0,.55.85c.35.35.55.6.55.85a4.7,4.7,0,0,1,1.55.95,2.962,2.962,0,0,0,1.75.85,2.006,2.006,0,0,0,.75-.15C207.7-6.75,207.9-7.2,207.6-7.55Z" transform="translate(-8.35 40.25)"/>
</svg>
